<?xml version="1.0" encoding="utf-8"?>
<!-- Generator: Adobe Illustrator 27.5.0, SVG Export Plug-In . SVG Version: 6.00 Build 0)  -->
<svg version="1.1" id="Layer_1" xmlns="http://www.w3.org/2000/svg" xmlns:xlink="http://www.w3.org/1999/xlink" x="0px" y="0px"
	 viewBox="0 0 521.048 264.543" style="enable-background:new 0 0 521.048 264.543;" xml:space="preserve">
<g>
	<g>
		<g>
			<rect x="97.986" y="228.153" style="fill:#585A69;" width="202.698" height="6.892"/>
			<path style="fill:#1A1B1B;" d="M301.032,235.394H97.637v-7.59h203.396V235.394z M98.334,234.697h202.001v-6.195H98.334V234.697z"
				/>
		</g>
		<g>
			<g>
				<path style="fill:#5A5D5F;" d="M214.446,235.374l-0.949-0.001l-2.794-3.02h-20.525h-11.191H158.46l-2.732,2.953l-1.012-0.001
					v1.554c-0.004,0.394,0.308,0.774,1.432,0.879h21.424h14.016h21.424c1.32-0.123,1.518-0.625,1.401-1.084L214.446,235.374z"/>
				<path style="fill:#555752;" d="M191.589,238.086h-35.441c-1.486-0.137-1.786-0.745-1.781-1.231v-1.9l1.208,0.001l2.731-2.953
					h52.547l2.794,3.02l1.154,0.001l-0.038,1.591c0.065,0.303,0.014,0.583-0.148,0.813c-0.258,0.366-0.772,0.58-1.571,0.655
					L191.589,238.086z M155.065,235.654v1.205c-0.004,0.372,0.697,0.493,1.116,0.531l56.833-0.001
					c0.75-0.071,0.973-0.276,1.033-0.361c0.033-0.046,0.072-0.127,0.03-0.289l-0.012-0.046l0.023-0.97l-0.745-0.001l-2.794-3.021
					h-51.937l-2.732,2.953L155.065,235.654z"/>
			</g>
			<g>
				<path style="fill:#95979A;" d="M213.912,234.267l-3.21-3.47h-20.525h-11.191H158.46l-3.21,3.47c0,0-1.669,1.675,0.899,1.914
					h21.424h14.016h21.424C215.582,235.943,213.912,234.267,213.912,234.267z"/>
				<path style="fill:#555752;" d="M191.589,236.531h-35.441c-0.988-0.091-1.541-0.379-1.723-0.883
					c-0.27-0.747,0.49-1.538,0.577-1.626l3.305-3.573h52.547l3.31,3.578c0.108,0.109,0.838,0.887,0.572,1.621
					c-0.182,0.504-0.735,0.793-1.691,0.882L191.589,236.531z M158.613,231.146l-3.107,3.358c-0.178,0.181-0.519,0.646-0.424,0.907
					c0.036,0.1,0.216,0.342,1.1,0.424l56.833-0.001c0.851-0.081,1.031-0.323,1.067-0.423c0.095-0.263-0.245-0.726-0.415-0.897
					l-0.009-0.009l-3.107-3.358H158.613z"/>
			</g>
		</g>
	</g>
	<g>
		<g>
			<g>
				<path style="fill:#D2D3C7;" d="M74.846,30.926l11.327-14.96c0,0,3.494-5.244,9.509-6.786s31.154-4.627,31.154-4.627
					s6.169-1.234,7.095,2.005l5.861,24.368H74.846z"/>
				<path style="fill:#B2B4AA;" d="M140.234,31.275H74.145l11.75-15.519c0.133-0.202,3.626-5.356,9.701-6.913
					c5.967-1.53,30.946-4.605,31.198-4.635c0.239-0.049,6.47-1.253,7.473,2.255L140.234,31.275z M75.547,30.578h63.802
					l-5.758-23.938c-0.823-2.878-6.629-1.757-6.688-1.745c-0.277,0.035-25.211,3.104-31.136,4.623
					c-5.818,1.492-9.271,6.59-9.306,6.642L75.547,30.578z"/>
			</g>
			<polygon style="fill:#ADAFA6;" points="80.946,22.869 74.846,30.926 139.791,30.926 137.853,22.869 			"/>
			<path style="fill:#FFFFFF;" d="M84.338,20.67c0,0,5.58-8.213,11.755-9.832c6.174-1.619,32.895-5.205,32.895-5.205l-29.959,6.246
				c0,0-3.644,1.609-5.668,3.47c-2.474,2.275-5.437,5.321-5.437,5.321H84.338z"/>
		</g>
		<g>
			<path style="fill:#FDFCEA;" d="M283.792,28.573c2.262-4.643,8.159-16.819,8.533-18.313c0.463-1.851,0-2.919,0-2.919
				c-0.617-3.227-6.323-3.019-6.323-3.019s-57.373,0-63.868,0s-8.401,4.877-8.401,4.877l-13.378,19.373H283.792z"/>
			<path style="fill:#B2B4AA;" d="M284.01,28.921h-84.321L213.424,9.03c0.214-0.491,2.378-5.056,8.708-5.056h63.868
				c0.235-0.01,5.964-0.177,6.659,3.269c0.084,0.223,0.444,1.335,0.002,3.101c-0.378,1.513-6.11,13.358-8.557,18.381L284.01,28.921z
				 M201.018,28.224h82.556c2.006-4.119,8.046-16.584,8.412-18.049c0.424-1.695,0.022-2.688,0.017-2.698l-0.022-0.071
				c-0.555-2.9-5.916-2.737-5.968-2.736l-63.881,0c-6.186,0-8.059,4.609-8.077,4.655l-0.038,0.071L201.018,28.224z"/>
		</g>
		<path style="fill:#ADAFA6;" d="M203.599,23.872l-3.246,4.701h83.438c0.575-1.18,1.385-2.847,2.279-4.701H203.599z"/>
		<g>
			<g>
				<path style="fill:#9B9DA0;" d="M427.697,29.32v-4.33v-2.165c0.008-0.93-0.171-1.8-0.492-2.654
					c-0.324-0.849-0.848-1.677-1.566-2.328c-0.715-0.649-1.585-1.115-2.463-1.361c-0.435-0.118-0.877-0.199-1.309-0.252
					l-0.641-0.039c-0.22-0.014-0.429-0.023-0.598-0.019h-2.168h-17.345h-34.69h-34.69h-17.345h-2.168
					c-0.33-0.01-0.814,0.029-1.226,0.053c-0.427,0.029-0.873,0.137-1.307,0.23c-0.877,0.251-1.752,0.683-2.48,1.324
					c-0.73,0.639-1.269,1.463-1.604,2.31c-0.33,0.864-0.518,1.697-0.523,2.667v2.165v4.33c0.243,0.056,0.482,0.118,0.73,0.158
					c0.755,0.122,1.503,0.035,2.175-0.132v-4.34v-2.17c-0.007-0.493,0.116-1.083,0.305-1.571c0.389-1.009,1.119-1.627,2.14-1.929
					c0.266-0.057,0.533-0.122,0.821-0.148l0.44-0.025l0.221-0.015h0.271h2.167h17.335h34.67h34.67h17.335h2.167
					c0.392-0.009,0.638,0.027,0.944,0.037c0.297,0.009,0.552,0.096,0.829,0.135c1.026,0.299,1.768,0.899,2.166,1.901
					c0.193,0.475,0.321,1.093,0.321,1.552v2.17l0,4.34C425.58,29.518,426.753,29.532,427.697,29.32z"/>
				<path style="fill:#797A7D;" d="M427.772,29.392l0.098-0.022v-4.332v-2.166c0.015-0.927-0.161-1.842-0.484-2.71
					c-0.326-0.872-0.855-1.727-1.588-2.406c-0.728-0.674-1.623-1.175-2.523-1.424c-0.448-0.137-0.897-0.203-1.341-0.272
					c-0.417-0.025-0.913-0.065-1.267-0.062h-2.17h-17.358h-34.715h-34.715h-17.358h-2.17h-0.271l-0.327,0.017l-0.654,0.04
					c-0.438,0.044-0.893,0.138-1.338,0.248c-0.9,0.254-1.799,0.719-2.541,1.386c-0.745,0.667-1.29,1.519-1.627,2.388
					c-0.333,0.88-0.519,1.754-0.516,2.725v2.166v4.332l0.254,0.059c0.191,0.045,0.388,0.092,0.593,0.125
					c0.706,0.114,1.486,0.069,2.314-0.137l0.093-0.023V24.98v-2.172c-0.011-0.494,0.103-1.045,0.283-1.521
					c0.373-0.969,1.034-1.551,2.008-1.845c0.248-0.066,0.514-0.113,0.786-0.151l0.429-0.024c0.137-0.011,0.283-0.021,0.478-0.017
					h2.168h17.346h34.692h34.692h17.346h2.168c0.398-0.01,0.617,0.03,0.922,0.038c0.285,0.017,0.535,0.091,0.797,0.136
					c0.978,0.294,1.66,0.849,2.038,1.813c0.182,0.46,0.305,1.049,0.3,1.497v2.172l0,4.344l0.063,0.024
					c0.455,0.176,1.037,0.269,1.685,0.269C426.845,29.545,427.332,29.492,427.772,29.392z M307.815,29.225
					c-0.706,0.165-1.355,0.2-1.944,0.105c-0.183-0.029-0.361-0.072-0.55-0.116l-0.063-0.015v-4.327v-2.163
					c0.015-0.96,0.198-1.762,0.53-2.605c0.341-0.82,0.861-1.621,1.577-2.233c0.713-0.617,1.565-1.016,2.419-1.264
					c0.423-0.075,0.859-0.197,1.276-0.212c0.411-0.024,0.867-0.059,1.202-0.049h2.167h17.332h34.664h34.664h17.332h2.167
					c0.332-0.011,0.812,0.033,1.213,0.054c0.42,0.038,0.853,0.133,1.277,0.233c0.855,0.243,1.701,0.675,2.402,1.299
					c0.703,0.623,1.221,1.424,1.543,2.25c0.318,0.837,0.5,1.667,0.499,2.595v2.164v4.327c-0.367,0.075-0.765,0.115-1.158,0.114
					c-0.535,0-1.017-0.072-1.399-0.208l0-4.337v-2.168c-0.008-0.474-0.135-1.117-0.345-1.607c-0.215-0.507-0.511-0.947-0.897-1.275
					c-0.387-0.329-0.867-0.55-1.397-0.712c-0.29-0.035-0.551-0.134-0.86-0.135c-0.307-0.013-0.577-0.046-0.965-0.037h-2.165h-17.324
					h-34.648h-34.648h-17.324h-2.166c-0.389-0.01-0.641,0.029-0.956,0.039c-0.302,0.015-0.572,0.097-0.855,0.145
					c-1.068,0.309-1.865,0.962-2.273,2.011c-0.199,0.502-0.332,1.125-0.329,1.623v2.168V29.225z"/>
			</g>
			<g style="opacity:0.6;">
				<path style="fill:#797A7D;" d="M305.814,29.407c0.292,0.047,0.584,0.063,0.87,0.055c-0.088-0.005-0.176-0.021-0.265-0.054
					c-0.108-0.04-0.211-0.102-0.316-0.158v-4.32v-2.16c-0.002-0.791,0.161-1.545,0.438-2.272c0.282-0.722,0.724-1.403,1.318-1.931
					c0.593-0.527,1.308-0.902,2.056-1.115c0.374-0.091,0.755-0.171,1.133-0.211c0.373-0.016,0.773-0.06,1.124-0.051h2.161h17.287
					h34.575h34.575h17.287h2.161c0.359-0.001,0.716-0.005,1.104,0.026l0.569,0.036l0.568,0.107c1.524,0.251,2.952,1.332,3.608,2.753
					c0.336,0.706,0.537,1.457,0.598,2.232c0.027,0.79,0.008,1.459,0.014,2.195v4.32c-0.408,0.212-0.916,0.198-1.258-0.106V24.43
					v-1.081v-0.541c0.001-0.202-0.001-0.283-0.018-0.457c-0.062-0.612-0.232-1.232-0.503-1.768c-0.544-1.08-1.545-1.801-2.787-2.01
					c-0.301-0.076-0.623-0.093-0.946-0.107c-0.304-0.029-0.691-0.015-1.044-0.019h-2.16h-17.278h-34.555h-34.555h-17.278h-2.16
					c-0.369-0.005-0.656,0.034-0.988,0.045c-0.312,0.044-0.623,0.097-0.919,0.178c-1.179,0.336-2.096,1.153-2.528,2.315
					c-0.216,0.569-0.349,1.207-0.341,1.805v2.162v4.323c-0.152,0.087-0.314,0.151-0.48,0.176c0.384-0.025,0.757-0.089,1.109-0.177
					v-4.34v-2.17c-0.007-0.493,0.116-1.083,0.305-1.571c0.389-1.009,1.119-1.627,2.14-1.929c0.266-0.057,0.533-0.122,0.821-0.148
					l0.44-0.025l0.221-0.015h0.271h2.167h17.335h34.67h34.67h17.335h2.167c0.392-0.009,0.638,0.027,0.944,0.037
					c0.297,0.009,0.552,0.096,0.829,0.135c1.026,0.299,1.768,0.899,2.166,1.901c0.193,0.475,0.321,1.093,0.321,1.552v2.17l0,4.34
					c0.789,0.305,1.961,0.319,2.905,0.107v-4.33v-2.165c0.008-0.93-0.171-1.8-0.492-2.654c-0.324-0.849-0.848-1.677-1.566-2.328
					c-0.715-0.649-1.585-1.115-2.463-1.361c-0.435-0.118-0.877-0.199-1.309-0.252l-0.641-0.039c-0.22-0.014-0.429-0.023-0.598-0.019
					h-2.168h-17.345h-34.69h-34.69h-17.345h-2.168c-0.33-0.01-0.814,0.029-1.226,0.053c-0.427,0.029-0.873,0.137-1.307,0.23
					c-0.877,0.251-1.752,0.683-2.48,1.324c-0.73,0.639-1.269,1.463-1.604,2.31c-0.33,0.864-0.518,1.697-0.523,2.667v2.165v4.33
					C305.327,29.305,305.566,29.367,305.814,29.407z"/>
				<path style="fill:#797A7D;" d="M306.88,29.452l-0.197,0.01C306.75,29.465,306.815,29.462,306.88,29.452z"/>
			</g>
			<path style="opacity:0.8;fill:#FFFFFF;" d="M425.896,28.728c-0.096,0-0.174-0.036-0.174-0.081l0-4.308v-1.077v-0.538
				c0.004-0.16-0.011-0.312-0.026-0.476c-0.08-0.649-0.258-1.295-0.557-1.864c-0.591-1.153-1.724-1.905-3.026-2.116
				c-0.644-0.131-1.316-0.116-2.048-0.121l-2.153,0l-17.221,0l-34.443-0.001l-34.443-0.001l-17.221,0l-2.153,0l-0.537,0.001
				l-0.502,0.03c-0.339,0-0.659,0.078-0.982,0.137c-1.288,0.27-2.353,1.114-2.879,2.303c-0.27,0.584-0.431,1.244-0.47,1.887
				l-0.005,2.123l0,4.308c0,0.045-0.078,0.081-0.174,0.081c-0.096,0-0.174-0.036-0.174-0.081l0-4.306l0.005-2.143
				c0.043-0.692,0.212-1.385,0.502-2.014c0.289-0.631,0.714-1.195,1.252-1.626c0.529-0.449,1.195-0.7,1.865-0.871
				c0.343-0.065,0.684-0.145,1.037-0.146c0.348-0.026,0.702-0.04,1.063-0.032l2.153,0l17.221,0l34.443,0.001l34.443,0.001l17.221,0
				l2.153,0c0.721,0.004,1.428-0.012,2.112,0.126c1.378,0.218,2.638,1.049,3.271,2.296c0.323,0.614,0.511,1.298,0.595,1.989
				c0.055,0.675,0.015,1.424,0.028,2.132l0,4.306C426.07,28.692,425.992,28.728,425.896,28.728z"/>
		</g>
		<g>
			<g>
				<g>
					<g>
						<g>
							<path style="fill:#9B9DA0;" d="M511.054,151.043l-11.32-0.073c-0.006,0.243-0.013,0.482-0.018,0.73
								c-0.015,0.755-0.013,1.503-0.003,2.175l11.313,0.073C511.056,153.16,511.065,151.988,511.054,151.043z"/>
							<path style="fill:#797A7D;" d="M511.06,150.968l-0.001-0.099l-11.328-0.073l-0.007,0.254
								c-0.005,0.191-0.01,0.388-0.014,0.593c-0.014,0.706-0.015,1.486-0.004,2.314l0.001,0.093l11.32,0.073l0.002-0.063
								c0.017-0.455,0.029-1.037,0.033-1.685C511.067,151.895,511.065,151.408,511.06,150.968z M499.718,153.702
								c-0.009-0.706-0.007-1.355,0.004-1.944c0.004-0.183,0.008-0.361,0.013-0.55l0.002-0.063l11.311,0.073
								c0.004,0.367,0.004,0.765,0.002,1.158c-0.003,0.536-0.012,1.017-0.026,1.399L499.718,153.702z"/>
						</g>
						<g style="opacity:0.6;">
							<path style="fill:#797A7D;" d="M499.716,151.701c-0.006,0.292-0.009,0.583-0.01,0.87c0.001-0.088,0.003-0.176,0.006-0.265
								c0.004-0.108,0.01-0.211,0.015-0.316l11.282,0.073c0.015,0.409,0.01,0.916-0.017,1.258l-11.276-0.073
								c-0.006-0.152-0.01-0.314-0.011-0.48c-0.001,0.384,0.002,0.757,0.007,1.108l11.313,0.073c0.03-0.789,0.039-1.961,0.027-2.905
								l-11.32-0.073C499.728,151.214,499.721,151.452,499.716,151.701z"/>
							<path style="fill:#797A7D;" d="M499.706,152.767c0-0.065,0-0.131,0-0.197C499.706,152.637,499.706,152.702,499.706,152.767z"
								/>
						</g>
						<path style="opacity:0.8;fill:#FFFFFF;" d="M510.994,152.844c-0.001,0.096-0.004,0.174-0.008,0.174l-11.239-0.076
							c-0.004,0-0.006-0.078-0.005-0.174c0.001-0.096,0.004-0.174,0.008-0.174l11.239,0.076
							C510.992,152.67,510.995,152.748,510.994,152.844z"/>
					</g>
				</g>
				<g>
					<g>
						<g>
							<path style="fill:#9B9DA0;" d="M484.322,39.433l-11.32-0.073c-0.006,0.243-0.013,0.482-0.018,0.73
								c-0.015,0.755-0.013,1.503-0.003,2.175l11.313,0.073C484.325,41.55,484.334,40.378,484.322,39.433z"/>
							<path style="fill:#797A7D;" d="M484.329,39.357l-0.001-0.098L473,39.186l-0.007,0.254c-0.005,0.191-0.01,0.388-0.014,0.593
								c-0.014,0.706-0.015,1.486-0.004,2.314l0.001,0.093l11.32,0.073l0.002-0.063c0.017-0.455,0.029-1.037,0.033-1.685
								C484.335,40.285,484.334,39.798,484.329,39.357z M472.987,42.092c-0.009-0.706-0.008-1.355,0.004-1.944
								c0.004-0.183,0.008-0.361,0.013-0.55l0.002-0.063l11.311,0.073c0.004,0.367,0.004,0.765,0.002,1.158
								c-0.004,0.535-0.012,1.017-0.026,1.399L472.987,42.092z"/>
						</g>
						<g style="opacity:0.6;">
							<path style="fill:#797A7D;" d="M472.985,40.091c-0.006,0.292-0.009,0.583-0.01,0.87c0.001-0.088,0.003-0.176,0.006-0.265
								c0.004-0.108,0.01-0.211,0.015-0.316l11.282,0.073c0.015,0.409,0.01,0.916-0.017,1.258l-11.276-0.073
								c-0.006-0.152-0.01-0.314-0.011-0.48c0,0.384,0.002,0.757,0.007,1.109l11.313,0.073c0.03-0.789,0.039-1.961,0.027-2.905
								l-11.32-0.073C472.997,39.604,472.99,39.842,472.985,40.091z"/>
							<path style="fill:#797A7D;" d="M472.975,41.157c0-0.065,0-0.131,0-0.197C472.974,41.027,472.974,41.092,472.975,41.157z"/>
						</g>
						<path style="opacity:0.8;fill:#FFFFFF;" d="M484.262,41.234c0,0.096-0.004,0.174-0.008,0.174l-11.239-0.076
							c-0.004,0-0.006-0.078-0.006-0.174c0.001-0.097,0.004-0.174,0.008-0.174l11.239,0.077
							C484.261,41.06,484.263,41.138,484.262,41.234z"/>
					</g>
				</g>
				<g>
					<g>
						<g>
							<path style="fill:#9B9DA0;" d="M511.159,220.558l-11.32-0.073c-0.006,0.243-0.013,0.482-0.018,0.73
								c-0.015,0.755-0.013,1.503-0.003,2.175l11.313,0.073C511.161,222.674,511.17,221.502,511.159,220.558z"/>
							<path style="fill:#797A7D;" d="M511.165,220.482l-0.001-0.098l-11.328-0.073l-0.006,0.254
								c-0.005,0.191-0.01,0.388-0.014,0.593c-0.014,0.706-0.015,1.486-0.004,2.314l0.001,0.093l11.32,0.073l0.002-0.063
								c0.017-0.455,0.029-1.037,0.033-1.685C511.172,221.409,511.17,220.922,511.165,220.482z M499.823,223.216
								c-0.009-0.706-0.008-1.355,0.004-1.944c0.004-0.183,0.008-0.361,0.013-0.55l0.002-0.063l11.311,0.073
								c0.004,0.367,0.004,0.765,0.002,1.158c-0.003,0.536-0.012,1.017-0.026,1.399L499.823,223.216z"/>
						</g>
						<g style="opacity:0.6;">
							<path style="fill:#797A7D;" d="M499.821,221.215c-0.006,0.292-0.009,0.583-0.01,0.87c0.001-0.088,0.003-0.176,0.006-0.265
								c0.004-0.108,0.01-0.211,0.015-0.316l11.282,0.073c0.015,0.409,0.01,0.916-0.017,1.257l-11.276-0.073
								c-0.006-0.152-0.01-0.314-0.011-0.48c0,0.384,0.002,0.757,0.007,1.109l11.313,0.073c0.03-0.789,0.039-1.961,0.027-2.905
								l-11.32-0.073C499.833,220.728,499.826,220.967,499.821,221.215z"/>
							<path style="fill:#797A7D;" d="M499.811,222.281c0-0.065,0-0.131,0-0.197C499.81,222.151,499.81,222.217,499.811,222.281z"/>
						</g>
						<path style="opacity:0.8;fill:#FFFFFF;" d="M511.099,222.358c-0.001,0.096-0.004,0.174-0.008,0.174l-11.239-0.076
							c-0.004,0-0.006-0.078-0.005-0.174c0-0.096,0.004-0.174,0.008-0.174l11.239,0.077
							C511.097,222.184,511.099,222.262,511.099,222.358z"/>
					</g>
				</g>
			</g>
			<g>
				<g>
					<path style="fill:#9B9DA0;" d="M440.127,30.674c1.973-3.661,3.933-7.278,5.717-11.121c0.373-0.829,0.802-1.477,1.415-1.993
						c0.592-0.514,1.325-0.879,2.105-1.048c0.19-0.037,0.392-0.074,0.557-0.084l0.085-0.003l0.194,0.001l0.387,0.002l1.55,0.01
						l3.099,0.02l12.397,0.08l6.066,0.04c0.74,0.093,1.474,0.373,1.98,0.836c0.266,0.227,0.487,0.511,0.668,0.831
						c0.18,0.303,0.324,0.713,0.381,0.984l0.017,0.086l0.017,0.086c8.841,34.277,17.648,68.468,26.256,102.753l3.182,12.858
						c0.519,2.143,1.052,4.288,1.542,6.429c0.238,1.057,0.527,2.172,0.722,3.182l0.311,1.531c0.08,0.534,0.135,1.091,0.204,1.636
						l0.785,6.572l0.387,3.239l-0.02,3.186l-0.086,13.254l-0.341,53.018c0.242,0.107,0.48,0.226,0.728,0.303
						c0.754,0.235,1.502,0.076,2.177-0.234l0.342-53.03l0.085-13.258l0.02-3.412l-0.403-3.372l-0.787-6.59l-0.203-1.651
						l-0.342-1.718c-0.111-0.585-0.237-1.126-0.365-1.662l-0.378-1.621c-0.496-2.167-1.029-4.311-1.55-6.462l-3.187-12.878
						c-8.608-34.287-17.436-68.563-26.253-102.744l-0.001-0.005l-0.001-0.005c-0.15-0.738-0.378-1.303-0.706-1.896
						c-0.324-0.578-0.745-1.119-1.258-1.568c-1.026-0.925-2.321-1.406-3.604-1.566c-0.09-0.024-0.252-0.015-0.337-0.018
						l-0.193-0.001l-0.386-0.002l-0.772-0.005l-1.543-0.01l-3.087-0.02l-12.348-0.079l-3.087-0.02l-1.543-0.01l-0.817-0.004
						c-0.394,0.018-0.688,0.058-1.008,0.122c-1.24,0.251-2.426,0.785-3.407,1.607c-0.986,0.81-1.747,1.866-2.237,2.977
						c-1.679,3.639-3.647,7.285-5.586,10.883C438.091,29.988,439.104,30.577,440.127,30.674z"/>
					<path style="fill:#797A7D;" d="M440.128,30.832l0.107,0.01c1.98-3.671,3.942-7.293,5.738-11.15
						c0.12-0.273,0.2-0.399,0.294-0.596c0.081-0.19,0.209-0.338,0.308-0.51c0.105-0.168,0.24-0.304,0.354-0.462
						c0.138-0.132,0.26-0.282,0.407-0.401c0.567-0.5,1.269-0.86,2.022-1.03c0.184-0.042,0.378-0.075,0.539-0.088
						c0.051-0.013,0.388-0.001,0.631-0.003l1.553,0.01l3.105,0.02l12.421,0.08l6.072,0.039c0.102,0.026,0.359,0.053,0.518,0.097
						c0.17,0.058,0.358,0.088,0.508,0.169c0.332,0.119,0.601,0.313,0.854,0.524c0.252,0.213,0.461,0.483,0.634,0.787
						c0.171,0.286,0.311,0.687,0.362,0.931l0.018,0.091l0.018,0.091c8.847,34.299,17.657,68.5,26.268,102.801l3.183,12.862
						c0.52,2.144,1.052,4.29,1.542,6.43l0.375,1.606c0.129,0.54,0.251,1.072,0.344,1.569l0.31,1.52l0.199,1.64l0.785,6.574
						l0.378,3.171l-0.021,3.236l-0.086,13.26l-0.342,53.041l0.253,0.113c0.19,0.087,0.387,0.176,0.592,0.24
						c0.705,0.22,1.485,0.139,2.316-0.242l0.093-0.042l0.342-53.053l0.085-13.263l0.022-3.363c-0.012-0.334-0.042-0.417-0.053-0.561
						l-0.049-0.412l-0.098-0.824l-0.197-1.649l-0.787-6.594l-0.198-1.649l-0.344-1.73c-0.112-0.589-0.237-1.138-0.365-1.671
						l-0.378-1.623c-0.497-2.169-1.029-4.315-1.55-6.467l-3.188-12.885c-8.611-34.302-17.445-68.597-26.264-102.787
						c-0.156-0.767-0.389-1.342-0.727-1.954c-0.333-0.594-0.767-1.151-1.296-1.614c-0.525-0.461-1.126-0.853-1.761-1.101
						c-0.315-0.147-0.637-0.226-0.959-0.321c-0.335-0.092-0.61-0.119-0.992-0.186c-0.097-0.028-0.279-0.01-0.349-0.016l-0.193-0.001
						l-0.387-0.003l-0.773-0.005l-1.546-0.01l-3.091-0.02l-12.366-0.08l-3.091-0.02l-1.546-0.01l-0.855,0
						c-0.383,0.021-0.694,0.068-1.018,0.133c-1.268,0.263-2.476,0.827-3.476,1.674c-1.007,0.83-1.773,1.938-2.258,3.047
						c-1.68,3.633-3.652,7.286-5.592,10.887l0.034,0.07c0.242,0.507,0.67,0.939,1.237,1.25
						C439.175,30.641,439.65,30.787,440.128,30.832z M512.436,227.034c-0.708,0.306-1.357,0.367-1.945,0.184
						c-0.183-0.057-0.36-0.138-0.548-0.223l-0.063-0.029l0.341-52.994l0.085-13.249l0.017-3.158l-0.392-3.285l-0.784-6.57
						c-0.071-0.543-0.119-1.105-0.208-1.633l-0.313-1.541c-0.201-1.023-0.486-2.129-0.725-3.189
						c-0.49-2.141-1.024-4.285-1.542-6.428l-3.181-12.853c-8.604-34.269-17.408-68.449-26.244-102.705l-0.016-0.081l-0.016-0.081
						c-0.062-0.299-0.211-0.717-0.399-1.037c-0.188-0.335-0.422-0.634-0.702-0.874c-0.536-0.492-1.299-0.782-2.076-0.881
						l-6.064-0.042l-12.373-0.08l-3.093-0.02l-1.547-0.01l-0.702-0.003c-0.162,0.009-0.374,0.04-0.57,0.08
						c-1.637,0.347-2.974,1.453-3.658,3.081c-1.773,3.828-3.729,7.44-5.696,11.091c-0.39-0.05-0.776-0.175-1.12-0.363
						c-0.47-0.256-0.829-0.606-1.042-1.012c1.939-3.601,3.895-7.226,5.586-10.889c0.489-1.087,1.24-2.111,2.207-2.895
						c0.964-0.792,2.124-1.306,3.337-1.542c0.322-0.059,0.581-0.101,1.004-0.11l0.776,0.005l1.541,0.01l3.082,0.02l12.329,0.079
						l3.082,0.02l1.541,0.01l0.771,0.005l0.385,0.003l0.193,0.001c0.096,0,0.239-0.003,0.323,0.019
						c1.245,0.157,2.507,0.626,3.498,1.524c0.496,0.436,0.905,0.96,1.219,1.522c0.319,0.575,0.541,1.13,0.685,1.839l0.002,0.01
						l0.002,0.01c8.814,34.173,17.638,68.428,26.242,102.701l3.186,12.871c0.52,2.15,1.053,4.292,1.549,6.457
						c0.246,1.095,0.517,2.126,0.742,3.273l0.34,1.706c0.087,0.558,0.137,1.1,0.207,1.651l0.787,6.587l0.396,3.315
						c0.021,0.104,0.012,0.272,0.013,0.339l-0.001,0.207l-0.003,0.414l-0.005,0.828l-0.011,1.656l-0.085,13.252L512.436,227.034z"/>
				</g>
				<g style="opacity:0.6;">
					<path style="fill:#797A7D;" d="M510.433,227.362c0.292,0.091,0.583,0.122,0.869,0.109c-0.088-0.01-0.176-0.042-0.265-0.105
						c-0.107-0.076-0.21-0.193-0.314-0.299l0.342-53.018l0.085-13.255l0.017-3.275l-0.391-3.275l-0.785-6.578
						c-0.069-0.547-0.123-1.099-0.204-1.642l-0.322-1.596c-0.206-1.062-0.489-2.145-0.73-3.217c-0.492-2.15-1.025-4.294-1.545-6.44
						l-3.184-12.864c-8.607-34.283-17.421-68.501-26.253-102.742l-0.012-0.057l-0.011-0.058c-0.184-0.877-0.656-1.76-1.337-2.364
						c-0.671-0.631-1.572-0.975-2.504-1.108c-0.179-0.04-0.451-0.014-0.703-0.024l-0.761-0.005l-1.522-0.01l-3.045-0.02
						l-12.18-0.079l-3.045-0.02l-1.522-0.01c-0.491,0.01-1.057-0.035-1.467,0.019c-1.881,0.232-3.595,1.43-4.45,3.143
						c-1.7,3.655-3.624,7.278-5.546,10.847c-0.551,0.159-0.983-0.108-1.012-0.772c0.958-1.775,1.905-3.557,2.828-5.347
						c0.462-0.895,0.917-1.793,1.36-2.693l0.652-1.352l0.311-0.677c0.106-0.229,0.247-0.495,0.37-0.74
						c1.061-2.008,3.184-3.451,5.481-3.672c0.073-0.008,0.149-0.014,0.231-0.017l0.23-0.002l0.379,0.002l0.758,0.005l1.516,0.01
						l3.033,0.019l12.131,0.078l3.033,0.019l1.516,0.01l0.758,0.005l0.379,0.002l0.237,0.002c0.1,0.006,0.172,0.025,0.25,0.036
						c1.118,0.159,2.288,0.601,3.164,1.43c0.892,0.82,1.464,1.861,1.717,3.062l0.004,0.023l0.005,0.022
						c8.823,34.205,17.647,68.463,26.255,102.752l3.186,12.875c0.521,2.149,1.053,4.294,1.548,6.455
						c0.244,1.09,0.52,2.132,0.738,3.261l0.335,1.678l0.203,1.648l0.786,6.587l0.398,3.337l-0.021,3.369l-0.086,13.258
						l-0.342,53.031c-0.153,0.163-0.315,0.283-0.482,0.329c0.384-0.045,0.758-0.163,1.11-0.326l0.342-53.03l0.085-13.258l0.02-3.412
						l-0.403-3.372l-0.787-6.59l-0.203-1.651l-0.342-1.718c-0.111-0.585-0.237-1.126-0.365-1.662l-0.378-1.621
						c-0.496-2.167-1.029-4.311-1.55-6.462l-3.187-12.878c-8.608-34.287-17.436-68.563-26.253-102.744l-0.001-0.005l-0.001-0.005
						c-0.15-0.738-0.378-1.303-0.706-1.896c-0.324-0.578-0.745-1.119-1.258-1.568c-1.026-0.925-2.321-1.406-3.604-1.566
						c-0.09-0.024-0.252-0.015-0.337-0.018l-0.193-0.001l-0.386-0.002l-0.772-0.005l-1.543-0.01l-3.087-0.02l-12.348-0.079
						l-3.087-0.02l-1.543-0.01l-0.817-0.004c-0.394,0.018-0.688,0.058-1.008,0.122c-1.24,0.251-2.426,0.785-3.407,1.607
						c-0.986,0.81-1.747,1.866-2.237,2.977c-1.679,3.639-3.647,7.285-5.586,10.883c0.42,0.878,1.434,1.468,2.457,1.564
						c1.973-3.661,3.933-7.278,5.717-11.121c0.373-0.829,0.802-1.477,1.415-1.993c0.592-0.514,1.325-0.879,2.105-1.048
						c0.19-0.037,0.392-0.074,0.557-0.084l0.085-0.003l0.194,0.001l0.387,0.002l1.55,0.01l3.099,0.02l12.397,0.08l6.066,0.04
						c0.74,0.093,1.474,0.373,1.98,0.836c0.266,0.227,0.487,0.511,0.668,0.831c0.18,0.303,0.324,0.713,0.381,0.984l0.017,0.086
						l0.017,0.086c8.841,34.277,17.648,68.468,26.256,102.753l3.182,12.858c0.519,2.143,1.052,4.288,1.542,6.429
						c0.238,1.057,0.527,2.172,0.722,3.182l0.311,1.531c0.08,0.534,0.135,1.091,0.204,1.636l0.785,6.572l0.387,3.239l-0.02,3.186
						l-0.086,13.254l-0.341,53.018C509.947,227.167,510.185,227.285,510.433,227.362z"/>
					<path style="fill:#797A7D;" d="M511.499,227.454l-0.197,0.017C511.368,227.479,511.434,227.472,511.499,227.454z"/>
				</g>
				<path style="opacity:0.8;fill:#FFFFFF;" d="M439.077,28.833c-0.085-0.046-0.121-0.143-0.081-0.217
					c0.954-1.77,1.897-3.546,2.816-5.332c0.459-0.893,0.914-1.788,1.353-2.688l0.648-1.352l0.315-0.681
					c0.123-0.24,0.24-0.482,0.37-0.718c0.542-0.935,1.312-1.754,2.229-2.349c0.93-0.58,1.965-0.955,3.081-1.039l6.076,0.031
					l12.08,0.078l3.02,0.019l1.51,0.01l0.755,0.005l0.378,0.002l0.227,0.002l0.219,0.037c1.068,0.158,2.167,0.576,2.985,1.359
					c0.835,0.768,1.379,1.765,1.613,2.883l0.005,0.031l0.007,0.031c8.798,34.111,17.593,68.258,26.176,102.442l3.178,12.833
					c0.516,2.143,1.054,4.279,1.546,6.431c0.247,1.078,0.509,2.141,0.744,3.231c0.218,1.102,0.474,2.207,0.566,3.298l0.784,6.565
					l0.392,3.282l0.052,0.431c0.008,0.201,0,0.31,0.002,0.454l-0.005,0.826l-0.011,1.652l-0.085,13.217l-0.341,52.869
					c-0.001,0.085-0.079,0.153-0.175,0.152c-0.096-0.001-0.174-0.07-0.173-0.154l0.341-52.869l0.085-13.217l0.011-1.652l0.005-0.826
					c-0.001-0.14,0.006-0.268-0.001-0.426l-0.05-0.417l-0.392-3.282l-0.784-6.563c-0.235-2.195-0.821-4.353-1.303-6.492
					c-0.491-2.149-1.029-4.285-1.545-6.427l-3.178-12.831c-8.583-34.185-17.376-68.323-26.177-102.446l-0.009-0.04l-0.007-0.041
					c-0.215-1.028-0.731-1.981-1.507-2.688c-0.76-0.728-1.784-1.119-2.799-1.27c-2.056-0.078-4.038-0.044-6.061-0.072l-12.08-0.078
					l-6.052-0.032c-1.042,0.078-2.038,0.436-2.915,0.985c-0.868,0.564-1.598,1.337-2.115,2.23c-1.73,3.665-3.58,7.213-5.496,10.761
					C439.262,28.856,439.161,28.878,439.077,28.833z"/>
			</g>
		</g>
		<g>
			<path style="fill:#FDFCEA;" d="M477.245,31.428c-1.506-4.629-6.037-3.623-6.037-3.623l-211.694-0.718l0-0.02L55.88,25.754
				c-4.417,0.453-5.783,2.726-5.783,2.726S20.582,61.135,16.85,65.738c-3.731,4.603,1.32,10.584,1.32,10.584
				s12.681,18.656,15.02,21.756c2.339,3.1,6.235,2.638,6.235,2.638l107.218,0.691l-0.835,129.553l109.029,0.702v0.026l242.13,0.909
				c6.72,0.043,7.922-3.566,7.922-3.566l0.493-76.572C505.382,152.46,478.75,36.057,477.245,31.428z"/>
			<path style="fill:#B2B4AA;" d="M497.088,232.946c-0.041,0-0.082,0-0.124,0l-242.476-0.91v-0.027l-109.032-0.702l0.002-0.349
				l0.833-129.205l-106.869-0.689c-0.122,0.017-4.08,0.446-6.511-2.776c-2.317-3.071-14.903-21.583-15.03-21.77
				c-0.03-0.033-5.17-6.228-1.302-11c3.694-4.557,32.963-36.945,33.258-37.272c0.02-0.045,1.469-2.373,6.006-2.839l204.018,1.313
				v0.019l211.313,0.717c0.486-0.089,4.897-0.763,6.402,3.864c1.493,4.592,27.058,116.308,28.145,121.062l0.009,0.039l0,0.041
				l-0.494,76.627l-0.017,0.052C505.167,229.298,503.874,232.946,497.088,232.946z M255.186,231.341l241.782,0.907
				c6.018,0.044,7.4-2.854,7.572-3.281l0.493-76.47c-0.614-2.681-26.646-116.431-28.12-120.962l0,0
				c-1.387-4.265-5.458-3.428-5.631-3.391l-0.076,0.008l-212.041-0.72v-0.021l-203.288-1.31c-4.125,0.426-5.47,2.538-5.483,2.559
				c-0.334,0.379-29.59,32.753-33.273,37.296c-3.504,4.323,1.267,10.082,1.316,10.14c0.148,0.215,12.725,18.713,15.032,21.771
				c2.185,2.896,5.878,2.506,5.916,2.502l107.609,0.691l-0.002,0.349l-0.832,129.205l109.027,0.702V231.341z"/>
		</g>
		<path style="fill:#D4D5C8;" d="M485.233,160.152H230.835c-4.009,0-6.984-1.118-8.841-3.323c-2.541-3.016-2.057-6.976-1.972-7.545
			V77.632c0-1.981,0.703-3.608,2.089-4.835c3.721-3.297,11.144-2.54,11.851-2.459h231.396c4.43-0.544,12.988,0.262,13.983,7.195
			c1.165,8.112,15.471,70.502,15.732,71.638c0.081,0.314,1.114,4.534-1.317,7.697C492.082,159.047,489.215,160.152,485.233,160.152z
			 M231.379,71.608c-2.474,0-6.218,0.348-8.345,2.234c-1.088,0.965-1.617,2.205-1.617,3.79v71.706c0,0.039-0.003,0.079-0.01,0.117
			c-0.007,0.038-0.608,3.801,1.661,6.484c1.581,1.87,4.195,2.818,7.767,2.818h254.398c3.52,0,6.014-0.919,7.411-2.731
			c2.056-2.665,1.087-6.471,1.077-6.51c-0.002-0.007-0.004-0.015-0.005-0.022c-0.595-2.591-14.578-63.56-15.755-71.763
			c-1.054-7.341-12.359-6.018-12.474-6.005c-0.029,0.004-0.057,0.006-0.086,0.006h-231.48c-0.028,0-0.056-0.002-0.084-0.005
			C233.81,71.724,232.806,71.608,231.379,71.608z"/>
		<g>
			<path style="fill:#9FA1A4;" d="M485.233,64.971c-4.18-17.981-7.486-31.997-7.989-33.543c-1.506-4.629-6.037-3.623-6.037-3.623
				l-211.694-0.718l0-0.02L55.88,25.754c-4.417,0.453-5.783,2.726-5.783,2.726S23.122,58.325,17.49,64.971H485.233z"/>
			<path style="fill:#575757;" d="M485.672,65.319H16.737l0.486-0.574c5.571-6.574,32.344-36.2,32.614-36.499
				c0.02-0.045,1.469-2.373,6.006-2.839l204.018,1.313v0.019l211.313,0.717c0.484-0.089,4.896-0.763,6.402,3.864
				c0.449,1.382,3.139,12.677,7.996,33.572L485.672,65.319z M18.246,64.622h466.549c-4.79-20.603-7.441-31.733-7.881-33.087
				c-1.387-4.264-5.458-3.428-5.631-3.39l-0.076,0.008l-212.042-0.719v-0.022l-203.288-1.31c-4.126,0.426-5.47,2.538-5.483,2.559
				C50.094,29.003,24.729,57.071,18.246,64.622z"/>
		</g>
		<path style="fill:#9FA1A4;" d="M26.655,54.563c-4.07,4.563-7.524,8.471-9.165,10.407h467.744
			c-0.85-3.659-1.664-7.149-2.426-10.407H26.655z"/>
		<g>
			<path style="fill:#9FA1A4;" d="M60.699,31.192l203.634,1.312l0,0.02c0,0,206.844-2.295,208.636-1.213
				c-1.623-4.196-210.718-1.407-210.718-1.407l0-0.02L58.616,28.573c-4.417,0.453-5.783,2.726-5.783,2.726
				S41.232,44.135,31.657,54.845c10.982-10.074,23.258-20.927,23.258-20.927S56.282,31.645,60.699,31.192z"/>
		</g>
		<g>
			<polygon style="fill:#0474A9;" points="505.257,171.852 505.309,163.758 146.241,163.758 146.189,171.852 			"/>
			<path style="fill:#005479;" d="M505.603,172.2H145.838l0.057-8.791H505.66L505.603,172.2z M146.54,171.503H504.91l0.047-7.396
				H146.587L146.54,171.503z"/>
		</g>
		<g>
			<polygon style="fill:#0474A9;" points="146.14,175.443 146.089,183.305 505.157,183.305 505.207,175.443 			"/>
			<path style="fill:#005479;" d="M505.503,183.654H145.738l0.055-8.56h359.765L505.503,183.654z M146.44,182.956h358.37
				l0.046-7.165H146.486L146.44,182.956z"/>
		</g>
		<g>
			<g>
				<path style="fill:#292B2A;" d="M122.42,79.861H59.352c-6.6,0-12-5.4-12-12V62.8c0-6.6,5.4-12,12-12h63.069c6.6,0,12,5.4,12,12
					v5.06C134.42,74.461,129.02,79.861,122.42,79.861z"/>
				<path style="fill:#1A1B1B;" d="M126.053,80.209H55.719c-4.806,0-8.716-3.91-8.716-8.716V59.167c0-4.806,3.91-8.715,8.716-8.715
					h70.334c4.806,0,8.716,3.91,8.716,8.715v12.326C134.769,76.299,130.859,80.209,126.053,80.209z M55.719,51.149
					c-4.422,0-8.018,3.597-8.018,8.018v12.326c0,4.422,3.597,8.018,8.018,8.018h70.334c4.421,0,8.018-3.597,8.018-8.018V59.167
					c0-4.421-3.597-8.018-8.018-8.018H55.719z"/>
			</g>
			<g>
				<path style="fill:#6F7184;" d="M122.55,52.595H96.093H85.278H58.821c0,0-8.714-0.429-9.099,5.068v3.929v7.043v3.928
					c0.386,5.497,9.099,5.068,9.099,5.068h26.458h10.815h26.458c0,0,8.714,0.429,9.1-5.068v-3.928v-7.043v-3.929
					C131.264,52.167,122.55,52.595,122.55,52.595z"/>
				<path style="fill:#1A1B1B;" d="M58.314,77.991c-1.926,0-8.587-0.367-8.941-5.403l-0.001-14.925
					c0.406-5.794,9.097-5.434,9.465-5.416l63.704,0c0.479-0.024,9.054-0.339,9.456,5.392l0.001,14.925
					c-0.405,5.796-9.095,5.436-9.465,5.417l-63.713,0C58.776,77.983,58.595,77.991,58.314,77.991z M58.438,52.938
					c-1.647,0-8.056,0.288-8.369,4.75l0.001,14.876c0.356,5.066,8.651,4.723,8.734,4.72l63.747,0
					c0.102,0.005,8.395,0.349,8.752-4.744l-0.001-14.876c-0.357-5.072-8.651-4.725-8.734-4.72l-0.017,0h-63.73
					C58.808,52.943,58.671,52.938,58.438,52.938z"/>
			</g>
			<path style="fill:#6F7184;" d="M73.741,59.009c3.11-2.133,6.215-4.275,9.321-6.414H79.26
				c-8.121,5.085-16.023,10.508-24.054,15.732c-1.819,1.183-3.647,2.354-5.485,3.511v0.726c0.053,0.753,0.266,1.391,0.587,1.938
				C58.254,69.544,66.019,64.305,73.741,59.009z"/>
			<path style="fill:#6F7184;" d="M106.536,72.059c7.02-4.732,14.042-9.462,21.022-14.254c1.122-0.77,2.24-1.545,3.359-2.318
				c-2.176-3.196-8.367-2.892-8.367-2.892h-5.146c-5.022,3.343-10.044,6.686-15.074,10.017c-6.888,4.562-13.779,9.12-20.66,13.693
				c-0.664,0.441-1.327,0.885-1.99,1.326h18.604C101.034,75.772,103.784,73.914,106.536,72.059z"/>
			<path style="opacity:0.43;fill:#535453;" d="M122.55,52.595H96.093H85.278H58.821c0,0-8.714-0.429-9.099,5.068v3.929v7.043v3.928
				c0.386,5.497,9.099,5.068,9.099,5.068h26.458h10.815h26.458c0,0,8.714,0.429,9.1-5.068v-3.928v-7.043v-3.929
				C131.264,52.167,122.55,52.595,122.55,52.595z M115.729,62.457v5.314v2.964c-0.291,4.147-6.865,3.824-6.865,3.824H88.903h-8.159
				H60.782c0,0-6.574,0.323-6.865-3.824v-2.964v-5.314v-2.964c0.291-4.147,6.865-3.824,6.865-3.824h19.961h8.159h19.961
				c0,0,6.574-0.323,6.865,3.824V62.457z"/>
		</g>
		<g>
			<g>
				<g>
					<path style="fill:#292B2A;" d="M449.587,79.861h-63.069c-6.6,0-12-5.4-12-12V62.8c0-6.6,5.4-12,12-12h63.069
						c6.6,0,12,5.4,12,12v5.06C461.587,74.461,456.187,79.861,449.587,79.861z"/>
					<path style="fill:#1A1B1B;" d="M453.22,80.209h-70.335c-4.806,0-8.715-3.91-8.715-8.716V59.167c0-4.806,3.91-8.715,8.715-8.715
						h70.335c4.806,0,8.716,3.91,8.716,8.715v12.326C461.935,76.299,458.026,80.209,453.22,80.209z M382.885,51.149
						c-4.421,0-8.018,3.597-8.018,8.018v12.326c0,4.422,3.597,8.018,8.018,8.018h70.335c4.421,0,8.018-3.597,8.018-8.018V59.167
						c0-4.421-3.597-8.018-8.018-8.018H382.885z"/>
				</g>
				<g>
					<path style="fill:#6F7184;" d="M449.717,52.595h-26.458h-10.815h-26.457c0,0-8.714-0.429-9.1,5.068v3.929v7.043v3.928
						c0.386,5.497,9.1,5.068,9.1,5.068h26.457h10.815h26.458c0,0,8.714,0.429,9.099-5.068v-3.928v-7.043v-3.929
						C458.431,52.167,449.717,52.595,449.717,52.595z"/>
					<path style="fill:#1A1B1B;" d="M385.48,77.991c-1.926,0-8.587-0.367-8.94-5.403l-0.001-14.925
						c0.406-5.794,9.098-5.434,9.465-5.416l63.704,0c0.482-0.024,9.054-0.339,9.456,5.392l0.001,14.925
						c-0.406,5.796-9.096,5.436-9.465,5.417l-63.713,0C385.942,77.983,385.761,77.991,385.48,77.991z M385.604,52.938
						c-1.647,0-8.056,0.288-8.369,4.75l0.001,14.876c0.356,5.066,8.649,4.723,8.734,4.72l63.747,0
						c0.103,0.005,8.395,0.349,8.752-4.744l-0.001-14.876c-0.357-5.072-8.65-4.725-8.734-4.72l-0.017,0h-63.73
						C385.974,52.943,385.836,52.938,385.604,52.938z"/>
				</g>
				<path style="fill:#6F7184;" d="M400.907,59.009c3.11-2.133,6.215-4.275,9.321-6.414h-3.802
					c-8.121,5.085-16.022,10.508-24.054,15.732c-1.819,1.183-3.647,2.354-5.485,3.511v0.726c0.053,0.753,0.266,1.391,0.588,1.938
					C385.42,69.544,393.185,64.305,400.907,59.009z"/>
				<path style="fill:#6F7184;" d="M433.702,72.059c7.02-4.732,14.042-9.462,21.022-14.254c1.122-0.77,2.24-1.545,3.359-2.318
					c-2.176-3.196-8.367-2.892-8.367-2.892h-5.146c-5.022,3.343-10.044,6.686-15.074,10.017c-6.888,4.562-13.779,9.12-20.661,13.693
					c-0.664,0.441-1.327,0.885-1.99,1.326h18.604C428.2,75.772,430.95,73.914,433.702,72.059z"/>
				<path style="opacity:0.43;fill:#535453;" d="M449.717,52.595h-26.458h-10.815h-26.457c0,0-8.714-0.429-9.1,5.068v3.929v7.043
					v3.928c0.386,5.497,9.1,5.068,9.1,5.068h26.457h10.815h26.458c0,0,8.714,0.429,9.099-5.068v-3.928v-7.043v-3.929
					C458.431,52.167,449.717,52.595,449.717,52.595z M442.895,62.457v5.314v2.964c-0.291,4.147-6.865,3.824-6.865,3.824h-19.961
					h-8.159h-19.961c0,0-6.574,0.323-6.865-3.824v-2.964v-5.314v-2.964c0.291-4.147,6.865-3.824,6.865-3.824h19.961h8.159h19.961
					c0,0,6.574-0.323,6.865,3.824V62.457z"/>
			</g>
			<g>
				<g>
					<path style="fill:#292B2A;" d="M449.587,130.823h-63.069c-6.6,0-12-5.4-12-12v-5.06c0-6.6,5.4-12,12-12h63.069
						c6.6,0,12,5.4,12,12v5.06C461.587,125.423,456.187,130.823,449.587,130.823z"/>
					<path style="fill:#1A1B1B;" d="M453.22,131.171h-70.335c-4.806,0-8.715-3.91-8.715-8.715V110.13
						c0-4.806,3.91-8.716,8.715-8.716h70.335c4.806,0,8.716,3.91,8.716,8.716v12.326
						C461.935,127.261,458.026,131.171,453.22,131.171z M382.885,102.111c-4.421,0-8.018,3.597-8.018,8.018v12.326
						c0,4.421,3.597,8.018,8.018,8.018h70.335c4.421,0,8.018-3.597,8.018-8.018V110.13c0-4.422-3.597-8.018-8.018-8.018H382.885z"/>
				</g>
				<g>
					<path style="fill:#6F7184;" d="M449.717,103.557h-26.458h-10.815h-26.457c0,0-8.714-0.429-9.1,5.068v3.928v7.043v3.929
						c0.386,5.497,9.1,5.068,9.1,5.068h26.457h10.815h26.458c0,0,8.714,0.429,9.099-5.068v-3.929v-7.043v-3.928
						C458.431,103.129,449.717,103.557,449.717,103.557z"/>
					<path style="fill:#1A1B1B;" d="M385.48,128.952c-1.926,0-8.587-0.367-8.94-5.402l-0.001-14.925
						c0.406-5.795,9.098-5.433,9.465-5.416l63.704,0c0.482-0.024,9.054-0.339,9.456,5.392l0.001,14.925
						c-0.406,5.795-9.096,5.437-9.465,5.416l-63.713,0C385.942,128.945,385.761,128.952,385.48,128.952z M385.604,103.9
						c-1.647,0-8.056,0.288-8.369,4.75l0.001,14.876c0.357,5.072,8.649,4.724,8.734,4.72l63.747,0
						c0.103,0.006,8.395,0.349,8.752-4.744l-0.001-14.876c-0.357-5.072-8.65-4.725-8.734-4.72l-0.017,0h-63.73
						C385.974,103.905,385.837,103.9,385.604,103.9z"/>
				</g>
				<path style="fill:#6F7184;" d="M400.907,109.971c3.11-2.133,6.215-4.275,9.321-6.414h-3.802
					c-8.121,5.085-16.022,10.509-24.054,15.732c-1.819,1.183-3.647,2.354-5.485,3.511v0.726c0.053,0.753,0.266,1.391,0.588,1.938
					C385.42,120.506,393.185,115.268,400.907,109.971z"/>
				<path style="fill:#6F7184;" d="M433.702,123.021c7.02-4.732,14.042-9.462,21.022-14.254c1.122-0.77,2.24-1.545,3.359-2.318
					c-2.176-3.196-8.367-2.892-8.367-2.892h-5.146c-5.022,3.343-10.044,6.686-15.074,10.017c-6.888,4.562-13.779,9.12-20.661,13.693
					c-0.664,0.441-1.327,0.885-1.99,1.326h18.604C428.2,126.734,430.95,124.876,433.702,123.021z"/>
				<path style="opacity:0.43;fill:#535453;" d="M449.717,103.557h-26.458h-10.815h-26.457c0,0-8.714-0.429-9.1,5.068v3.928v7.043
					v3.929c0.386,5.497,9.1,5.068,9.1,5.068h26.457h10.815h26.458c0,0,8.714,0.429,9.099-5.068v-3.929v-7.043v-3.928
					C458.431,103.129,449.717,103.557,449.717,103.557z M442.895,113.419v5.314v2.964c-0.291,4.147-6.865,3.824-6.865,3.824h-19.961
					h-8.159h-19.961c0,0-6.574,0.323-6.865-3.824v-2.964v-5.314v-2.964c0.291-4.147,6.865-3.824,6.865-3.824h19.961h8.159h19.961
					c0,0,6.574-0.323,6.865,3.824V113.419z"/>
			</g>
		</g>
		<path style="fill:#2A2C2C;" d="M370.005,231.995l-5.837-21.482c0,0-2.638-9.263-12.845-9.564h-39.097
			c-10.207,0.3-12.845,9.564-12.845,9.564l-5.837,21.482H370.005z"/>
		<path style="fill:#2A2C2C;" d="M365.958,231.995l-5.219-19.207c0,0-2.359-8.283-11.485-8.551h-34.958
			c-9.126,0.268-11.485,8.551-11.485,8.551l-5.219,19.207H365.958z"/>
		<g>
			<ellipse transform="matrix(0.5069 -0.862 0.862 0.5069 -36.1256 400.2478)" cx="331.775" cy="231.7" rx="28.875" ry="28.875"/>
			
				<ellipse transform="matrix(0.6046 -0.7965 0.7965 0.6046 -53.3768 355.8664)" style="fill:#2A2C2C;" cx="331.775" cy="231.7" rx="27.209" ry="27.209"/>
			<path style="fill:#797A7D;" d="M332.438,205.885c9.932,0.121,18.578,5.343,23.39,13.087c-4.512-8.509-13.411-14.353-23.72-14.48
				c-13.937-0.17-25.547,10.171-27.305,23.66C307.193,215.348,318.708,205.717,332.438,205.885z"/>
			<path d="M351.771,231.389c-0.135,11.04-9.194,19.879-20.233,19.744c-11.039-0.135-19.879-9.194-19.744-20.233
				c0.135-11.04,9.194-19.879,20.233-19.744C343.066,211.29,351.906,220.349,351.771,231.389z"/>
			<path style="fill:#9DAEB4;" d="M350.381,231.511c-0.126,10.273-8.555,18.499-18.828,18.373
				c-10.273-0.126-18.499-8.555-18.373-18.828c0.126-10.273,8.555-18.499,18.828-18.373
				C342.281,212.808,350.507,221.238,350.381,231.511z"/>
			<path style="fill:#2E3230;" d="M347.049,231.47c-0.103,8.433-7.023,15.186-15.456,15.082
				c-8.433-0.103-15.186-7.023-15.082-15.456c0.103-8.433,7.023-15.186,15.456-15.083C340.4,216.117,347.153,223.037,347.049,231.47
				z"/>
			<path style="fill:#9DAEB4;" d="M344.551,231.439c-0.086,7.053-5.874,12.701-12.927,12.614
				c-7.053-0.086-12.701-5.874-12.614-12.927c0.086-7.053,5.874-12.701,12.927-12.614
				C338.989,218.599,344.637,224.386,344.551,231.439z"/>
			<path style="fill:#9DAEB4;" d="M340.505,227.364c-0.052,4.293-4.073,7.725-8.979,7.665c-4.906-0.06-8.841-3.589-8.789-7.882
				s4.073-7.725,8.979-7.665C336.623,219.542,340.558,223.071,340.505,227.364z"/>
			<g>
				<path style="fill:#5D615F;" d="M332.891,214.22c-0.006,0.46-0.383,0.828-0.843,0.823c-0.46-0.006-0.828-0.383-0.823-0.843
					c0.006-0.46,0.383-0.828,0.843-0.823C332.529,213.383,332.897,213.76,332.891,214.22z"/>
				<path style="fill:#5D615F;" d="M332.477,248.09c-0.006,0.46-0.383,0.828-0.843,0.823c-0.46-0.006-0.828-0.383-0.823-0.843
					c0.006-0.46,0.383-0.828,0.843-0.823C332.114,247.253,332.483,247.63,332.477,248.09z"/>
			</g>
			<g>
				<path style="fill:#5D615F;" d="M348.776,232.185c-0.46-0.006-0.828-0.383-0.823-0.843c0.006-0.46,0.383-0.828,0.843-0.823
					c0.46,0.006,0.828,0.383,0.823,0.843C349.613,231.822,349.236,232.191,348.776,232.185z"/>
				<path style="fill:#5D615F;" d="M314.906,231.771c-0.46-0.006-0.828-0.383-0.823-0.843c0.006-0.46,0.383-0.828,0.843-0.823
					c0.46,0.006,0.828,0.383,0.823,0.843C315.744,231.408,315.366,231.776,314.906,231.771z"/>
			</g>
		</g>
		<g>
			<g>
				<path style="fill:#C0C1B6;" d="M487.267,174.714h-41.884c0,0-5.727-0.615-5.98,7.277v6.21v20.697v6.21
					c0.253,7.892,5.98,7.277,5.98,7.277h41.884c0,0,5.727,0.615,5.98-7.277v-7.113v-18.891v-7.113
					C492.994,174.099,487.267,174.714,487.267,174.714z"/>
				<path style="fill:#B2B4AA;" d="M445.078,222.746c-0.654,0-2.238-0.141-3.632-1.354c-1.495-1.3-2.299-3.411-2.391-6.273l0-33.128
					c0.092-2.874,0.897-4.984,2.391-6.285c1.787-1.554,3.886-1.348,3.975-1.339l41.83-0.002c0.237-0.021,2.24-0.15,3.954,1.341
					c1.495,1.3,2.299,3.411,2.391,6.273l0,33.128c-0.092,2.874-0.897,4.984-2.391,6.284c-1.787,1.554-3.888,1.347-3.975,1.339
					l-41.847,0.002C445.372,222.735,445.262,222.746,445.078,222.746z M445.123,175.054c-0.577,0-2.005,0.117-3.228,1.186
					c-1.337,1.169-2.058,3.107-2.143,5.762l0,33.105c0.085,2.649,0.809,4.591,2.152,5.758c1.56,1.356,3.425,1.174,3.443,1.172
					l41.921-0.002c0.054,0.002,1.937,0.179,3.489-1.177c1.337-1.169,2.058-3.107,2.143-5.762l0-33.105
					c-0.085-2.649-0.809-4.591-2.152-5.758c-1.559-1.356-3.423-1.172-3.443-1.172l-0.037,0.002h-41.884
					C445.372,175.062,445.278,175.054,445.123,175.054z"/>
			</g>
			<g>
				<path style="fill:#FDFCEA;" d="M477.442,217.904h-22.234c-6.6,0-12-5.4-12-12v-14.709c0-6.6,5.4-12,12-12h22.234
					c6.6,0,12,5.4,12,12v14.709C489.442,212.504,484.042,217.904,477.442,217.904z"/>
				<path style="fill:#7D7F79;" d="M481.075,218.252h-29.5c-4.806,0-8.716-3.91-8.716-8.716v-21.975c0-4.806,3.91-8.716,8.716-8.716
					h29.5c4.806,0,8.716,3.91,8.716,8.716v21.975C489.791,214.342,485.881,218.252,481.075,218.252z M451.575,179.544
					c-4.422,0-8.018,3.597-8.018,8.018v21.975c0,4.422,3.597,8.018,8.018,8.018h29.5c4.421,0,8.018-3.597,8.018-8.018v-21.975
					c0-4.422-3.597-8.018-8.018-8.018H451.575z"/>
			</g>
			<g>
				<path style="fill:#525551;" d="M446.49,188.291L446.49,188.291c0-0.328,0.268-0.596,0.596-0.596h38.54
					c0.328,0,0.596,0.268,0.596,0.596l0,0c0,0.328-0.268,0.596-0.596,0.596h-38.54C446.758,188.887,446.49,188.619,446.49,188.291z"
					/>
				<path style="fill:#525551;" d="M446.49,190.359L446.49,190.359c0-0.328,0.268-0.596,0.596-0.596h38.54
					c0.328,0,0.596,0.268,0.596,0.596l0,0c0,0.328-0.268,0.596-0.596,0.596h-38.54C446.758,190.955,446.49,190.686,446.49,190.359z"
					/>
				<path style="fill:#525551;" d="M446.49,192.426L446.49,192.426c0-0.328,0.268-0.596,0.596-0.596h38.54
					c0.328,0,0.596,0.268,0.596,0.596l0,0c0,0.328-0.268,0.596-0.596,0.596h-38.54C446.758,193.023,446.49,192.754,446.49,192.426z"
					/>
				<path style="fill:#525551;" d="M446.49,194.494L446.49,194.494c0-0.328,0.268-0.596,0.596-0.596h38.54
					c0.328,0,0.596,0.268,0.596,0.596l0,0c0,0.328-0.268,0.596-0.596,0.596h-38.54C446.758,195.091,446.49,194.822,446.49,194.494z"
					/>
				<path style="fill:#525551;" d="M446.49,196.562L446.49,196.562c0-0.328,0.268-0.596,0.596-0.596h38.54
					c0.328,0,0.596,0.268,0.596,0.596l0,0c0,0.328-0.268,0.596-0.596,0.596h-38.54C446.758,197.158,446.49,196.89,446.49,196.562z"
					/>
				<path style="fill:#525551;" d="M446.49,198.63L446.49,198.63c0-0.328,0.268-0.596,0.596-0.596h38.54
					c0.328,0,0.596,0.268,0.596,0.596l0,0c0,0.328-0.268,0.596-0.596,0.596h-38.54C446.758,199.226,446.49,198.958,446.49,198.63z"
					/>
				<path style="fill:#525551;" d="M446.49,200.698L446.49,200.698c0-0.328,0.268-0.596,0.596-0.596h38.54
					c0.328,0,0.596,0.268,0.596,0.596l0,0c0,0.328-0.268,0.596-0.596,0.596h-38.54C446.758,201.294,446.49,201.026,446.49,200.698z"
					/>
				<path style="fill:#525551;" d="M446.49,202.766L446.49,202.766c0-0.328,0.268-0.596,0.596-0.596h38.54
					c0.328,0,0.596,0.268,0.596,0.596l0,0c0,0.328-0.268,0.596-0.596,0.596h-38.54C446.758,203.362,446.49,203.094,446.49,202.766z"
					/>
				<path style="fill:#525551;" d="M446.49,204.834L446.49,204.834c0-0.328,0.268-0.596,0.596-0.596h38.54
					c0.328,0,0.596,0.268,0.596,0.596l0,0c0,0.328-0.268,0.596-0.596,0.596h-38.54C446.758,205.43,446.49,205.162,446.49,204.834z"
					/>
				<path style="fill:#525551;" d="M446.49,206.902L446.49,206.902c0-0.328,0.268-0.596,0.596-0.596h38.54
					c0.328,0,0.596,0.268,0.596,0.596l0,0c0,0.328-0.268,0.596-0.596,0.596h-38.54C446.758,207.498,446.49,207.23,446.49,206.902z"
					/>
				<path style="fill:#525551;" d="M446.49,208.969L446.49,208.969c0-0.328,0.268-0.596,0.596-0.596h38.54
					c0.328,0,0.596,0.268,0.596,0.596l0,0c0,0.328-0.268,0.596-0.596,0.596h-38.54C446.758,209.566,446.49,209.297,446.49,208.969z"
					/>
			</g>
			<g>
				<path style="fill:#525551;" d="M444.371,178.118c0,0.528-0.428,0.956-0.956,0.956c-0.528,0-0.956-0.428-0.956-0.956
					c0-0.528,0.428-0.956,0.956-0.956C443.943,177.162,444.371,177.59,444.371,178.118z"/>
				<path style="fill:#525551;" d="M443.415,219.839c-0.528,0-0.956-0.428-0.956-0.956s0.428-0.956,0.956-0.956
					c0.528,0,0.956,0.428,0.956,0.956S443.943,219.839,443.415,219.839z"/>
			</g>
			<g>
				<path style="fill:#525551;" d="M490.398,178.118c0,0.528-0.428,0.956-0.956,0.956c-0.528,0-0.956-0.428-0.956-0.956
					c0-0.528,0.428-0.956,0.956-0.956C489.97,177.162,490.398,177.59,490.398,178.118z"/>
				<path style="fill:#525551;" d="M489.442,219.839c-0.528,0-0.956-0.428-0.956-0.956s0.428-0.956,0.956-0.956
					c0.528,0,0.956,0.428,0.956,0.956S489.97,219.839,489.442,219.839z"/>
			</g>
		</g>
		<g>
			<g>
				<path style="fill:#535453;" d="M281.439,107.031h-39.11c0,0-5.348-0.575-5.584,6.795v5.799v19.326v5.799
					c0.237,7.37,5.584,6.795,5.584,6.795h39.11c0,0,5.348,0.575,5.584-6.795v-6.642v-17.639v-6.642
					C286.787,106.456,281.439,107.031,281.439,107.031z"/>
				<path style="fill:#1A1B1B;" d="M242.043,151.905c-0.611,0-2.098-0.132-3.406-1.27c-1.401-1.218-2.155-3.195-2.241-5.875
					l0-30.935c0.086-2.691,0.84-4.668,2.241-5.886c1.676-1.458,3.646-1.266,3.729-1.256l39.057-0.002
					c0.231-0.02,2.104-0.138,3.709,1.258c1.401,1.219,2.155,3.195,2.241,5.874l0,30.935c-0.086,2.691-0.84,4.667-2.241,5.886
					c-1.676,1.458-3.647,1.265-3.729,1.256l-39.073,0.002C242.318,151.894,242.216,151.905,242.043,151.905z M242.086,107.371
					c-0.537,0-1.863,0.109-3,1.103c-1.243,1.087-1.913,2.891-1.993,5.363l0,30.912c0.079,2.461,0.75,4.266,1.993,5.352
					c1.443,1.261,3.19,1.099,3.206,1.096l39.147-0.002c0.053,0.003,1.802,0.166,3.243-1.094c1.243-1.087,1.913-2.891,1.993-5.364
					l0-30.912c-0.079-2.461-0.75-4.265-1.993-5.352c-1.442-1.261-3.19-1.097-3.207-1.096l-0.036,0.002h-39.11
					C242.317,107.379,242.23,107.371,242.086,107.371z"/>
			</g>
			<g>
				<path style="fill:#6F7184;" d="M279.492,109.246h-35.217c0,0-4.815-0.518-5.028,6.119v5.222v17.402v5.221
					c0.213,6.636,5.028,6.118,5.028,6.118h35.217c0,0,4.815,0.518,5.029-6.118v-5.981v-15.884v-5.981
					C284.308,108.729,279.492,109.246,279.492,109.246z"/>
				<path style="fill:#1A1B1B;" d="M244.019,149.689c-0.554,0-1.904-0.12-3.09-1.152c-1.269-1.104-1.952-2.892-2.03-5.315l0-27.857
					c0.078-2.434,0.761-4.222,2.03-5.326c1.521-1.323,3.309-1.146,3.384-1.139l35.164-0.002c0.217-0.018,1.912-0.121,3.363,1.141
					c1.269,1.104,1.952,2.892,2.03,5.315l0,27.857c-0.078,2.434-0.761,4.222-2.03,5.326c-1.521,1.323-3.308,1.147-3.384,1.139
					l-35.18,0.002C244.267,149.679,244.174,149.689,244.019,149.689z M244.058,109.587c-0.481,0-1.666,0.098-2.681,0.985
					c-1.111,0.972-1.711,2.589-1.782,4.804l0,27.835c0.071,2.204,0.67,3.82,1.782,4.793c1.287,1.125,2.846,0.981,2.862,0.979
					l35.253-0.002c0.052,0.004,1.613,0.147,2.898-0.977c1.111-0.973,1.711-2.589,1.782-4.804l0-27.834
					c-0.071-2.204-0.67-3.82-1.782-4.793c-1.286-1.125-2.846-0.982-2.862-0.979l-0.036,0.002h-35.217
					C244.264,109.594,244.186,109.587,244.058,109.587z"/>
			</g>
			<polygon style="fill:#6F7184;" points="271.19,109.246 239.247,127.553 239.247,130.048 275.543,109.246 			"/>
			<path style="fill:#6F7184;" d="M284.521,123.513l-43.297,24.814c1.409,1.176,3.052,1.001,3.052,1.001h11.814l28.432-16.295
				V123.513z"/>
		</g>
		<g>
			<path style="fill:#D4D5C8;" d="M433.09,187.786H226.717c-0.578,0-1.046-0.468-1.046-1.046c0-0.578,0.468-1.046,1.046-1.046
				H433.09c0.578,0,1.046,0.468,1.046,1.046C434.136,187.317,433.668,187.786,433.09,187.786z"/>
			<path style="fill:#D4D5C8;" d="M433.09,192.995H226.717c-0.578,0-1.046-0.468-1.046-1.046c0-0.578,0.468-1.046,1.046-1.046
				H433.09c0.578,0,1.046,0.468,1.046,1.046C434.136,192.527,433.668,192.995,433.09,192.995z"/>
			<path style="fill:#D4D5C8;" d="M433.09,198.204H226.717c-0.578,0-1.046-0.468-1.046-1.046c0-0.578,0.468-1.046,1.046-1.046
				H433.09c0.578,0,1.046,0.468,1.046,1.046C434.136,197.736,433.668,198.204,433.09,198.204z"/>
		</g>
		<g>
			<path style="fill:#9FA1A4;" d="M217.535,21.29c-0.133,0-0.269-0.038-0.388-0.118c-0.32-0.215-0.405-0.648-0.19-0.967l6.367-9.485
				c0.214-0.319,0.648-0.406,0.967-0.19c0.32,0.214,0.405,0.648,0.19,0.967l-6.367,9.485C217.98,21.182,217.76,21.29,217.535,21.29z
				"/>
			<path style="fill:#9FA1A4;" d="M220.642,21.29c-0.133,0-0.269-0.038-0.388-0.118c-0.32-0.215-0.405-0.648-0.19-0.967l6.367-9.485
				c0.215-0.319,0.647-0.406,0.967-0.19c0.32,0.214,0.405,0.648,0.19,0.967l-6.367,9.485
				C221.087,21.182,220.867,21.29,220.642,21.29z"/>
			<path style="fill:#9FA1A4;" d="M214.428,21.29c-0.133,0-0.268-0.038-0.388-0.118c-0.32-0.215-0.405-0.648-0.19-0.967l6.367-9.485
				c0.214-0.319,0.648-0.406,0.967-0.19c0.32,0.214,0.405,0.648,0.19,0.967l-6.367,9.485
				C214.873,21.182,214.653,21.29,214.428,21.29z"/>
			<path style="fill:#9FA1A4;" d="M223.749,21.29c-0.133,0-0.269-0.038-0.388-0.118c-0.32-0.215-0.405-0.648-0.19-0.967l6.367-9.485
				c0.215-0.319,0.648-0.406,0.967-0.19c0.32,0.214,0.405,0.648,0.19,0.967l-6.367,9.485
				C224.194,21.182,223.974,21.29,223.749,21.29z"/>
			<path style="fill:#9FA1A4;" d="M229.963,21.29c-0.133,0-0.269-0.038-0.388-0.118c-0.32-0.215-0.405-0.648-0.19-0.967l6.367-9.485
				c0.214-0.319,0.647-0.406,0.967-0.19c0.32,0.214,0.405,0.648,0.19,0.967l-6.367,9.485
				C230.408,21.182,230.188,21.29,229.963,21.29z"/>
			<path style="fill:#9FA1A4;" d="M233.07,21.29c-0.134,0-0.269-0.038-0.388-0.118c-0.32-0.215-0.405-0.648-0.19-0.967l6.367-9.485
				c0.214-0.319,0.647-0.406,0.967-0.19c0.32,0.214,0.405,0.648,0.19,0.967l-6.367,9.485C233.515,21.182,233.294,21.29,233.07,21.29
				z"/>
			<path style="fill:#9FA1A4;" d="M226.856,21.29c-0.133,0-0.269-0.038-0.388-0.118c-0.32-0.215-0.405-0.648-0.19-0.967l6.367-9.485
				c0.214-0.319,0.647-0.406,0.967-0.19c0.32,0.214,0.405,0.648,0.19,0.967l-6.367,9.485
				C227.301,21.182,227.081,21.29,226.856,21.29z"/>
			<path style="fill:#9FA1A4;" d="M236.177,21.29c-0.133,0-0.269-0.038-0.388-0.118c-0.32-0.215-0.405-0.648-0.19-0.967l6.367-9.485
				c0.214-0.319,0.648-0.406,0.967-0.19c0.32,0.214,0.405,0.648,0.19,0.967l-6.367,9.485
				C236.622,21.182,236.402,21.29,236.177,21.29z"/>
			<path style="fill:#9FA1A4;" d="M242.391,21.29c-0.133,0-0.269-0.038-0.388-0.118c-0.32-0.215-0.405-0.648-0.19-0.967l6.367-9.485
				c0.214-0.319,0.647-0.406,0.967-0.19c0.32,0.214,0.405,0.648,0.19,0.967l-6.367,9.485
				C242.836,21.182,242.615,21.29,242.391,21.29z"/>
			<path style="fill:#9FA1A4;" d="M245.498,21.29c-0.133,0-0.269-0.038-0.388-0.118c-0.32-0.215-0.405-0.648-0.19-0.967l6.367-9.485
				c0.214-0.319,0.648-0.406,0.967-0.19c0.32,0.214,0.405,0.648,0.19,0.967l-6.367,9.485
				C245.943,21.182,245.722,21.29,245.498,21.29z"/>
			<path style="fill:#9FA1A4;" d="M239.284,21.29c-0.133,0-0.269-0.038-0.388-0.118c-0.32-0.215-0.405-0.648-0.19-0.967l6.367-9.485
				c0.214-0.319,0.648-0.406,0.967-0.19c0.32,0.214,0.405,0.648,0.19,0.967l-6.367,9.485
				C239.729,21.182,239.508,21.29,239.284,21.29z"/>
			<path style="fill:#9FA1A4;" d="M248.605,21.29c-0.133,0-0.269-0.038-0.388-0.118c-0.32-0.215-0.405-0.648-0.19-0.967l6.367-9.485
				c0.214-0.319,0.647-0.406,0.967-0.19c0.32,0.214,0.405,0.648,0.19,0.967l-6.367,9.485C249.05,21.182,248.829,21.29,248.605,21.29
				z"/>
			<path style="fill:#9FA1A4;" d="M254.819,21.29c-0.133,0-0.269-0.038-0.388-0.118c-0.32-0.215-0.405-0.648-0.19-0.967l6.367-9.485
				c0.215-0.319,0.647-0.406,0.967-0.19c0.32,0.214,0.405,0.648,0.19,0.967l-6.367,9.485
				C255.264,21.182,255.043,21.29,254.819,21.29z"/>
			<path style="fill:#9FA1A4;" d="M257.926,21.29c-0.133,0-0.269-0.038-0.388-0.118c-0.32-0.215-0.405-0.648-0.19-0.967l6.367-9.485
				c0.214-0.319,0.648-0.406,0.967-0.19c0.32,0.214,0.405,0.648,0.19,0.967l-6.367,9.485C258.371,21.182,258.15,21.29,257.926,21.29
				z"/>
			<path style="fill:#9FA1A4;" d="M251.712,21.29c-0.133,0-0.269-0.038-0.388-0.118c-0.32-0.215-0.405-0.648-0.19-0.967l6.367-9.485
				c0.215-0.319,0.648-0.406,0.967-0.19c0.32,0.214,0.405,0.648,0.19,0.967l-6.367,9.485
				C252.157,21.182,251.936,21.29,251.712,21.29z"/>
			<path style="fill:#9FA1A4;" d="M261.032,21.29c-0.133,0-0.269-0.038-0.388-0.118c-0.32-0.215-0.405-0.648-0.19-0.967l6.367-9.485
				c0.214-0.319,0.647-0.406,0.967-0.19c0.32,0.214,0.405,0.648,0.19,0.967l-6.367,9.485
				C261.477,21.182,261.257,21.29,261.032,21.29z"/>
			<path style="fill:#9FA1A4;" d="M267.246,21.29c-0.133,0-0.269-0.038-0.388-0.118c-0.32-0.215-0.405-0.648-0.19-0.967l6.368-9.485
				c0.214-0.319,0.648-0.406,0.967-0.19c0.32,0.214,0.405,0.648,0.19,0.967l-6.367,9.485
				C267.691,21.182,267.471,21.29,267.246,21.29z"/>
			<path style="fill:#9FA1A4;" d="M270.353,21.29c-0.134,0-0.269-0.038-0.388-0.118c-0.32-0.215-0.405-0.648-0.19-0.967l6.367-9.485
				c0.214-0.319,0.647-0.406,0.967-0.19c0.32,0.214,0.405,0.648,0.19,0.967l-6.368,9.485
				C270.798,21.182,270.578,21.29,270.353,21.29z"/>
			<path style="fill:#9FA1A4;" d="M264.139,21.29c-0.133,0-0.269-0.038-0.388-0.118c-0.32-0.215-0.405-0.648-0.19-0.967l6.367-9.485
				c0.215-0.319,0.648-0.406,0.967-0.19c0.32,0.214,0.405,0.648,0.19,0.967l-6.367,9.485
				C264.584,21.182,264.364,21.29,264.139,21.29z"/>
			<path style="fill:#9FA1A4;" d="M273.46,21.29c-0.133,0-0.269-0.038-0.388-0.118c-0.32-0.215-0.405-0.648-0.19-0.967l6.367-9.485
				c0.214-0.319,0.647-0.406,0.967-0.19c0.32,0.214,0.405,0.648,0.19,0.967l-6.367,9.485C273.905,21.182,273.685,21.29,273.46,21.29
				z"/>
			<path style="fill:#9FA1A4;" d="M276.567,21.29c-0.134,0-0.269-0.038-0.388-0.118c-0.32-0.215-0.405-0.648-0.19-0.967l6.368-9.485
				c0.215-0.319,0.647-0.406,0.967-0.19c0.32,0.214,0.405,0.648,0.19,0.967l-6.367,9.485
				C277.012,21.182,276.792,21.29,276.567,21.29z"/>
			<path style="fill:#9FA1A4;" d="M279.674,21.29c-0.133,0-0.269-0.038-0.388-0.118c-0.32-0.215-0.405-0.648-0.19-0.967l6.367-9.485
				c0.215-0.319,0.647-0.406,0.967-0.19c0.32,0.214,0.405,0.648,0.19,0.967l-6.368,9.485
				C280.119,21.182,279.899,21.29,279.674,21.29z"/>
		</g>
		<g>
			<g>
				<g>
					<path style="fill:#F68C22;" d="M13.709,182.148l-1.542-0.694c0,0-4.164,10.873,0,24.368L13.709,182.148z"/>
					<path style="fill:#F79B74;" d="M12.166,206.171c-0.151,0-0.287-0.098-0.333-0.246c-4.152-13.454-0.035-24.486,0.007-24.596
						c0.034-0.089,0.104-0.161,0.193-0.198c0.088-0.036,0.188-0.035,0.276,0.004l1.542,0.694c0.133,0.06,0.215,0.195,0.205,0.341
						l-1.542,23.674c-0.011,0.168-0.14,0.304-0.307,0.323C12.193,206.17,12.179,206.171,12.166,206.171z M12.37,181.928
						c-0.613,1.852-3.227,10.832-0.42,21.842l1.395-21.404L12.37,181.928z"/>
				</g>
				<g>
					<rect x="12.166" y="181.454" style="fill:#9FA1A4;" width="8.868" height="24.368"/>
					<path style="fill:#575757;" d="M21.383,206.171h-9.566v-25.066h9.566V206.171z M12.515,205.474h8.171v-23.671h-8.171V205.474z"
						/>
				</g>
			</g>
			<g>
				<g>
					<path style="fill:#535453;" d="M36.492,164.764c5.432-0.496,8.346-3.55,8.346-3.55s31.721-44.768,31.721-48.48
						c0-3.712-3.652-3.851-3.652-3.851h-7.482l-44.701,56.004C25.58,164.992,32.999,165.083,36.492,164.764z"/>
					<path style="fill:#1A1B1B;" d="M28.816,165.334c-2.711,0-5.597-0.045-8.098-0.099l-0.704-0.015l45.244-56.685h7.65
						c0.053,0.002,4,0.198,4,4.2c0,3.78-30.487,46.85-31.785,48.681c-0.155,0.168-3.1,3.194-8.599,3.696l0,0
						C34.711,165.277,31.874,165.334,28.816,165.334z M21.437,164.552c5.21,0.107,11.785,0.16,15.023-0.136l0,0
						c5.226-0.477,8.098-3.414,8.126-3.444c8.772-12.387,31.624-45.284,31.624-48.239c0-3.325-3.182-3.498-3.317-3.503l-7.3,0
						L21.437,164.552z"/>
				</g>
				<g style="opacity:0.43;">
					<path style="fill:#535453;" d="M72.907,108.883h-7.482l-2.021,2.532c0.928,0.239,2.467,0.971,2.467,3.213
						c0,3.208-27.411,41.893-27.411,41.893s-2.518,2.639-7.212,3.068c-1.524,0.139-3.914,0.188-6.447,0.19l-4.076,5.107
						c4.855,0.106,12.274,0.197,15.767-0.122c5.432-0.496,8.346-3.55,8.346-3.55s31.721-44.768,31.721-48.48
						C76.559,109.022,72.907,108.883,72.907,108.883z"/>
				</g>
				<g>
					<path style="fill:#FDFCEA;" d="M75.369,100.947c-4.19,1.183-7.137,4.419-7.137,4.419l-2.807,3.516h7.482
						c0,0,3.652,0.139,3.652,3.851c0,3.712-31.721,48.48-31.721,48.48s-2.914,3.054-8.346,3.55
						c-3.493,0.319-10.911,0.228-15.767,0.122l-4.84,6.064c-3.024,3.563-2.374,9.715-2.374,9.715s2.043,43.543,2.008,47.122
						c-0.042,4.208,8.755,4.441,8.755,4.441l121.535-1.269l0.835-129.553L75.369,100.947z"/>
					<path style="fill:#B2B4AA;" d="M24.277,232.577c-0.386-0.01-9.152-0.294-9.107-4.793c0.035-3.528-1.987-46.667-2.007-47.102
						c-0.026-0.237-0.629-6.323,2.456-9.957l4.941-6.191l0.172,0.004c5.306,0.116,12.342,0.188,15.727-0.12
						c5.241-0.478,8.097-3.414,8.126-3.444c8.773-12.387,31.625-45.285,31.625-48.239c0-3.325-3.182-3.498-3.317-3.503l-8.192,0
						l3.259-4.082c0.137-0.152,3.078-3.341,7.314-4.537l0.047-0.014l71.673,0.462l-0.002,0.349l-0.837,129.896l-0.343,0.004
						L24.277,232.577z M20.89,165.238l-4.733,5.929c-2.901,3.417-2.306,9.401-2.3,9.461c0.085,1.799,2.045,43.615,2.01,47.162
						c-0.038,3.818,8.331,4.087,8.416,4.089l121.179-1.265l0.83-128.862l-70.876-0.457c-4.022,1.153-6.898,4.273-6.926,4.305
						l-2.34,2.933h6.758c0.053,0.002,4,0.198,4,4.2c0,3.78-30.487,46.85-31.785,48.681c-0.155,0.168-3.099,3.194-8.599,3.696
						C33.141,165.42,26.192,165.352,20.89,165.238z"/>
				</g>
				<g style="opacity:0.43;">
					<path style="fill:#D4D5C8;" d="M75.369,100.947c-4.19,1.183-7.137,4.419-7.137,4.419l-0.969,1.214
						c2.126-0.434,4.777-0.737,7.583-0.472c6.601,0.622,59.088,0,59.088,0s5.441-0.813,5.858,9.968
						c0.417,10.781-22.486,59.523-77.315,74.828c-24.168,6.746-39.163,5.708-48.38,2.438c0.601,13.155,1.445,32.135,1.422,34.446
						c-0.042,4.208,8.755,4.441,8.755,4.441l121.535-1.269l0.835-129.553L75.369,100.947z"/>
				</g>
			</g>
			<g>
				<path style="fill:#292B2A;" d="M123.735,107.995H95.126c0,0-5.938,0-8.003,4.739l-22.341,42.717c0,0-1.811,3.733,0,6.077
					c1.811,2.344,6.956,1.846,6.956,1.846h59.246c0,0,7.332-0.89,7.194-6.558v-44.082c0,0,0.309-4.737-4.244-4.679L123.735,107.995z
					"/>
				<path style="fill:#1A1B1B;" d="M70.563,163.77c-1.676,0-4.693-0.264-6.056-2.029c-1.922-2.487-0.116-6.282-0.038-6.442
					l22.346-42.726c2.121-4.87,8.25-4.926,8.311-4.926h28.611l10.199,0.061c1.412-0.014,2.525,0.399,3.322,1.239
					c1.403,1.478,1.274,3.716,1.268,3.811l0.001,44.059c0.143,5.908-7.424,6.895-7.501,6.904l-59.288,0.002
					C71.686,163.728,71.231,163.77,70.563,163.77z M95.126,108.343c-0.057,0-5.736,0.061-7.683,4.53l-22.352,42.739
					c-0.012,0.026-1.689,3.558-0.033,5.702c1.674,2.167,6.598,1.718,6.647,1.712l59.279-0.002c0.244-0.033,6.974-0.918,6.846-6.201
					v-44.09c0.002-0.043,0.113-2.058-1.08-3.312c-0.658-0.692-1.618-1.032-2.811-1.019l-10.204-0.061H95.126z"/>
			</g>
			<g>
				<path style="fill:#535453;" d="M122.809,110.055H96.797c0,0-5.399,0-7.276,4.358l-20.313,39.283c0,0-1.647,3.433,0,5.588
					c1.647,2.156,6.325,1.698,6.325,1.698H129.4c0,0,6.666-0.818,6.541-6.031v-40.538c0,0,0.281-4.356-3.859-4.303L122.809,110.055z
					"/>
				<path style="fill:#1A1B1B;" d="M74.464,161.375c-1.528,0-4.286-0.244-5.534-1.878c-1.756-2.299-0.108-5.803-0.037-5.951
					l20.318-39.292c1.935-4.495,7.356-4.547,7.586-4.547h26.014l9.273,0.056c1.281-0.021,2.3,0.365,3.03,1.134
					c1.299,1.368,1.181,3.452,1.175,3.54l0.001,40.516c0.131,5.457-6.777,6.368-6.847,6.376l-53.911,0.003
					C75.485,161.336,75.072,161.375,74.464,161.375z M96.797,110.404c-0.051,0-5.194,0.057-6.956,4.148l-20.323,39.305
					c-0.011,0.023-1.529,3.258-0.033,5.217c1.509,1.975,5.969,1.567,6.014,1.562l53.902-0.002c0.216-0.03,6.309-0.841,6.193-5.673
					v-40.547c0.002-0.041,0.102-1.897-0.987-3.04c-0.591-0.62-1.429-0.935-2.52-0.914l-9.278-0.056H96.797z"/>
			</g>
			<path style="opacity:0.43;fill:#535453;" d="M132.082,110.111l-9.273-0.056H96.797c0,0-5.399,0-7.276,4.358l-20.314,39.283
				c0,0-1.647,3.432,0,5.588c1.647,2.156,6.325,1.697,6.325,1.697h53.869c0,0,6.666-0.818,6.541-6.03v-40.538
				C135.941,114.414,136.222,110.058,132.082,110.111z M127.233,115.785v31.432c0.097,4.041-5.071,4.676-5.071,4.676H80.394
				c0,0-3.627,0.355-4.904-1.316c-1.277-1.672,0-4.333,0-4.333l15.75-30.458c1.456-3.379,5.642-3.379,5.642-3.379h20.169l7.19,0.043
				C127.451,112.408,127.233,115.785,127.233,115.785z"/>
			<path style="fill:#2A2C2C;" d="M101.08,231.138l-4.272-20.624c0,0-2.638-9.263-12.845-9.564H55.178
				c-3.451,0.102-5.983,1.229-7.826,2.675c-0.002,0.001-7.81,3.86-10.74,15.826c-1.169,4.774-2.114,9.079-2.831,12.544
				L101.08,231.138z"/>
			<path style="fill:#2A2C2C;" d="M95.851,231.241l-3.76-18.155c0,0-2.322-8.154-11.307-8.419H55.446
				c-3.038,0.089-5.267,1.082-6.889,2.355c-0.002,0.001-6.875,3.397-9.454,13.931c-1.029,4.202-1.861,7.992-2.492,11.042
				L95.851,231.241z"/>
			<g>
				
					<ellipse transform="matrix(0.7071 -0.7071 0.7071 0.7071 -143.5463 115.3197)" cx="67.43" cy="230.936" rx="28.875" ry="28.875"/>
				<circle style="fill:#2A2C2C;" cx="67.43" cy="230.936" r="27.209"/>
				<path style="fill:#797A7D;" d="M67.777,205.115c9.933,0,18.642,5.115,23.549,12.8c-4.616-8.453-13.585-14.188-23.896-14.188
					c-13.938,0-25.421,10.482-27.013,23.993C42.65,214.886,54.046,205.115,67.777,205.115z"/>
				<circle cx="67.43" cy="230.38" r="19.99"/>
				
					<ellipse transform="matrix(0.9239 -0.3827 0.3827 0.9239 -83.0831 43.3517)" style="fill:#9DAEB4;" cx="67.43" cy="230.519" rx="18.602" ry="18.602"/>
				
					<ellipse transform="matrix(0.1602 -0.9871 0.9871 0.1602 -170.9135 260.1534)" style="fill:#2E3230;" cx="67.43" cy="230.519" rx="15.27" ry="15.27"/>
				<circle style="fill:#9DAEB4;" cx="67.43" cy="230.519" r="12.772"/>
				<path style="fill:#9DAEB4;" d="M76.106,226.493c0,4.294-3.978,7.774-8.885,7.774c-4.907,0-8.884-3.481-8.884-7.774
					c0-4.293,3.978-7.774,8.884-7.774C72.129,218.719,76.106,222.2,76.106,226.493z"/>
				<g>
					<path style="fill:#5D615F;" d="M68.333,213.444c0,0.46-0.373,0.833-0.833,0.833s-0.833-0.373-0.833-0.833
						c0-0.46,0.373-0.833,0.833-0.833S68.333,212.984,68.333,213.444z"/>
					<path style="fill:#5D615F;" d="M68.333,247.316c0,0.46-0.373,0.833-0.833,0.833s-0.833-0.373-0.833-0.833
						c0-0.46,0.373-0.833,0.833-0.833S68.333,246.857,68.333,247.316z"/>
				</g>
				<g>
					<path style="fill:#5D615F;" d="M84.436,231.213c-0.46,0-0.833-0.373-0.833-0.833c0-0.46,0.373-0.833,0.833-0.833
						c0.46,0,0.833,0.373,0.833,0.833C85.269,230.84,84.896,231.213,84.436,231.213z"/>
					<path style="fill:#5D615F;" d="M50.563,231.213c-0.46,0-0.833-0.373-0.833-0.833c0-0.46,0.373-0.833,0.833-0.833
						c0.46,0,0.833,0.373,0.833,0.833C51.396,230.84,51.023,231.213,50.563,231.213z"/>
				</g>
			</g>
			<path style="fill:#B0B1AF;" d="M142.054,227.842h-37.543c-0.329,0-0.613-0.23-0.682-0.552l-4.743-22.324
				c-1.81-7.133-12.981-7.848-13.093-7.854l-32.053,0.001c-0.385,0-0.697-0.312-0.697-0.697v-24.591
				c-0.258-7.256,1.701-10.701,1.784-10.844l26.175-49.268c3.854-8.326,13.377-7.988,13.469-7.982l16.649-0.001
				c0.002,0,0.004,0,0.007,0l22.299,0.208c3.477-0.136,6.069,0.55,7.654,2.039c1.418,1.331,1.47,2.827,1.471,2.89l0,118.279
				C142.751,227.53,142.439,227.842,142.054,227.842z M105.076,226.447h36.281V108.882c-0.007-0.133-0.265-3.829-7.711-3.552
				l-22.329-0.207H94.639c-0.382-0.014-8.717-0.289-12.189,7.208l-26.206,49.327c-0.031,0.054-1.851,3.31-1.608,10.14l0,23.919
				h31.395c0.54,0.029,12.344,0.779,14.412,8.931L105.076,226.447z"/>
			<g>
				<g>
					<path style="fill:#B1B3B6;" d="M104.179,150.436L104.179,150.436c-2.061,0-3.748-1.686-3.748-3.748v-21.435
						c0-2.061,1.687-3.748,3.748-3.748l0,0c2.061,0,3.748,1.686,3.748,3.748v21.435C107.927,148.75,106.241,150.436,104.179,150.436
						z"/>
					<path style="fill:#717375;" d="M104.179,150.785c-2.259,0-4.096-1.838-4.096-4.097v-21.435c0-2.259,1.838-4.097,4.096-4.097
						c2.259,0,4.097,1.838,4.097,4.097v21.435C108.276,148.947,106.438,150.785,104.179,150.785z M104.179,121.854
						c-1.874,0-3.399,1.525-3.399,3.399v21.435c0,1.875,1.525,3.399,3.399,3.399c1.874,0,3.399-1.525,3.399-3.399v-21.435
						C107.579,123.379,106.054,121.854,104.179,121.854z"/>
				</g>
				<g>
					<path style="fill:#B1B3B6;" d="M104.009,147.279L104.009,147.279c-0.868,0-1.579-0.71-1.579-1.579v-19.973
						c0-0.868,0.71-1.579,1.579-1.579l0,0c0.868,0,1.579,0.71,1.579,1.579V145.7C105.588,146.568,104.877,147.279,104.009,147.279z"
						/>
					<path style="fill:#717375;" d="M104.009,147.627c-1.063,0-1.927-0.865-1.927-1.928v-19.972c0-1.063,0.865-1.927,1.927-1.927
						c1.063,0,1.927,0.865,1.927,1.927V145.7C105.936,146.763,105.072,147.627,104.009,147.627z M104.009,124.497
						c-0.678,0-1.23,0.552-1.23,1.23V145.7c0,0.678,0.552,1.23,1.23,1.23c0.678,0,1.23-0.552,1.23-1.23v-19.972
						C105.239,125.049,104.687,124.497,104.009,124.497z"/>
				</g>
				<g>
					<g>
						<ellipse style="fill:#B1B3B6;" cx="89.888" cy="167.578" rx="1.859" ry="2.273"/>
						<path style="fill:#717375;" d="M89.888,170.2c-1.217,0-2.208-1.176-2.208-2.622c0-1.445,0.99-2.622,2.208-2.622
							c1.217,0,2.208,1.176,2.208,2.622C92.096,169.024,91.106,170.2,89.888,170.2z M89.888,165.653
							c-0.833,0-1.511,0.863-1.511,1.924c0,1.062,0.678,1.925,1.511,1.925c0.833,0,1.511-0.863,1.511-1.925
							C91.399,166.517,90.722,165.653,89.888,165.653z"/>
					</g>
					<g>
						<ellipse style="fill:#B1B3B6;" cx="96.728" cy="103.835" rx="1.859" ry="2.273"/>
						<path style="fill:#717375;" d="M96.728,106.456c-1.218,0-2.208-1.176-2.208-2.622s0.99-2.622,2.208-2.622
							c1.217,0,2.208,1.176,2.208,2.622S97.945,106.456,96.728,106.456z M96.728,101.91c-0.833,0-1.511,0.863-1.511,1.925
							s0.677,1.925,1.511,1.925c0.833,0,1.511-0.863,1.511-1.925S97.561,101.91,96.728,101.91z"/>
					</g>
					<g>
						<g>
							<path style="fill:#9B9DA0;" d="M89.563,168.108h4.998h2.499h1.249h0.625c0.205,0.001,0.41,0.003,0.672-0.018
								c0.97-0.023,2.109-0.542,2.673-1.464c0.29-0.442,0.47-0.923,0.568-1.406c0.051-0.249,0.083-0.472,0.088-0.766v-0.625v-4.998
								v-19.993v-19.993v-9.996v-2.499v-0.625c-0.004-0.119,0.008-0.175-0.008-0.346c-0.019-0.153-0.019-0.305-0.067-0.458
								c-0.155-0.637-0.655-1.129-1.121-1.38c-0.956-0.505-1.891-0.573-2.794-0.569l-2.489,0c-0.032,0.122-0.068,0.241-0.091,0.365
								c-0.07,0.378-0.02,0.751,0.077,1.088h2.508c0.753-0.019,1.535,0.09,2.062,0.375c0.259,0.146,0.391,0.301,0.44,0.481
								c0.045,0.115,0.029,0.664,0.032,1.05v2.498v9.991V138.8v19.982v4.995v0.624c0.003,0.154-0.018,0.315-0.05,0.483
								c-0.064,0.332-0.179,0.649-0.344,0.908c-0.331,0.514-0.85,0.806-1.534,0.845l-0.254,0.017h-0.312h-0.624h-1.249H94.62h-4.995
								C89.449,167.05,89.441,167.636,89.563,168.108z"/>
							<path style="fill:#797A7D;" d="M89.521,168.146l0.013,0.049h5.002h2.501h1.25h0.625c0.209-0.001,0.403,0.005,0.674-0.016
								c0.497-0.011,1.032-0.149,1.524-0.39c0.498-0.242,0.93-0.643,1.227-1.093c0.3-0.452,0.49-0.943,0.591-1.435
								c0.053-0.257,0.086-0.474,0.095-0.787v-0.625v-5.002v-20.008v-20.008v-10.004v-2.501v-0.625
								c0.002-0.161-0.001-0.53-0.09-0.839c-0.175-0.663-0.701-1.161-1.181-1.413c-0.98-0.507-1.929-0.569-2.836-0.564l-2.49,0
								l-0.034,0.127c-0.026,0.096-0.053,0.194-0.072,0.297c-0.065,0.353-0.04,0.743,0.079,1.157l0.013,0.046l2.511,0
								c0.751-0.02,1.52,0.085,2.031,0.356c0.25,0.139,0.366,0.277,0.409,0.427c0.042,0.078,0.031,0.619,0.032,1.012v2.499v9.997
								v19.994v19.994v4.999v0.625c0.002,0.138-0.019,0.303-0.051,0.464c-0.063,0.323-0.175,0.63-0.334,0.877
								c-0.319,0.489-0.808,0.757-1.475,0.796l-0.25,0.016h-0.312H98.35H97.1h-2.499h-4.998l-0.014,0.031
								c-0.101,0.228-0.155,0.519-0.155,0.842C89.434,167.682,89.464,167.926,89.521,168.146z M96.471,104.337
								c-0.096-0.353-0.115-0.677-0.061-0.972c0.017-0.091,0.041-0.18,0.067-0.275l0.008-0.032l2.489,0
								c0.899-0.003,1.821,0.072,2.751,0.574c0.454,0.249,0.926,0.733,1.063,1.345c0.034,0.146,0.041,0.293,0.056,0.44
								c0.011,0.143,0.003,0.219,0.005,0.332v0.624v2.497v9.989v19.978v19.978v4.995v0.624c-0.001,0.274-0.034,0.504-0.082,0.745
								c-0.095,0.474-0.264,0.946-0.545,1.378c-0.546,0.895-1.64,1.418-2.595,1.444c-0.255,0.021-0.468,0.021-0.669,0.019h-0.624
								h-1.249h-2.497h-4.995c-0.043-0.184-0.066-0.383-0.066-0.579c0-0.268,0.041-0.509,0.12-0.7h4.992h2.496h1.248h0.624
								l0.31-0.001l0.26-0.018c0.701-0.039,1.25-0.355,1.592-0.894c0.171-0.271,0.287-0.599,0.352-0.94
								c0.032-0.175,0.053-0.334,0.05-0.502v-0.624v-4.992v-19.969v-19.969v-9.985v-2.496v-0.624
								c-0.003-0.091,0.006-0.236-0.006-0.284c-0.013-0.058-0.004-0.125-0.023-0.177c-0.053-0.21-0.203-0.383-0.47-0.537
								c-0.544-0.3-1.339-0.412-2.095-0.395L96.471,104.337z"/>
						</g>
						<g style="opacity:0.6;">
							<path style="fill:#797A7D;" d="M96.366,103.337c-0.027,0.146-0.036,0.292-0.031,0.435c0.003-0.044,0.012-0.088,0.031-0.133
								c0.023-0.054,0.059-0.105,0.091-0.158l2.488,0c0.846-0.01,1.726,0.073,2.528,0.494c0.392,0.211,0.764,0.577,0.888,1.051
								c0.11,0.492,0.05,0.876,0.066,1.298v2.491v9.963v19.927v19.927v4.982c-0.013,0.414,0.031,0.824-0.037,1.275
								c-0.062,0.434-0.198,0.859-0.412,1.25c-0.214,0.39-0.523,0.738-0.903,0.987c-0.382,0.252-0.823,0.37-1.257,0.441
								c-3.374,0.065-6.657,0.018-9.99,0.033c-0.122-0.204-0.114-0.458,0.061-0.629h4.979h2.49h1.245h0.622
								c0.202-0.005,0.376-0.019,0.563-0.034c0.359-0.06,0.696-0.173,0.984-0.362c0.285-0.192,0.512-0.464,0.679-0.779
								c0.168-0.315,0.276-0.677,0.324-1.043c0.047-0.322,0.014-0.789,0.024-1.19v-4.979v-19.915v-19.916v-9.958v-2.489
								c-0.007-0.402,0.024-0.884-0.048-1.122c-0.077-0.276-0.293-0.5-0.597-0.665c-0.621-0.327-1.433-0.424-2.216-0.407h-2.495
								c-0.05-0.076-0.087-0.157-0.102-0.24c0.015,0.192,0.052,0.378,0.102,0.554h2.508c0.753-0.019,1.535,0.09,2.062,0.375
								c0.259,0.146,0.391,0.301,0.44,0.481c0.045,0.115,0.029,0.664,0.032,1.05v2.498v9.991V138.8v19.982v4.995v0.624
								c0.003,0.154-0.018,0.315-0.05,0.483c-0.064,0.332-0.179,0.649-0.344,0.908c-0.331,0.514-0.85,0.806-1.534,0.845
								l-0.254,0.017h-0.312h-0.624h-1.249H94.62h-4.995c-0.175,0.395-0.184,0.981-0.061,1.453h4.998h2.499h1.249h0.625
								c0.205,0.001,0.41,0.003,0.672-0.018c0.97-0.023,2.109-0.542,2.673-1.464c0.29-0.442,0.47-0.923,0.568-1.406
								c0.051-0.249,0.083-0.472,0.088-0.766v-0.625v-4.998v-19.993v-19.993v-9.996v-2.499v-0.625
								c-0.004-0.119,0.008-0.175-0.008-0.346c-0.019-0.153-0.019-0.305-0.067-0.458c-0.155-0.637-0.655-1.129-1.121-1.38
								c-0.956-0.505-1.891-0.573-2.794-0.569l-2.489,0C96.425,103.093,96.389,103.213,96.366,103.337z"/>
							<path style="fill:#797A7D;" d="M96.34,103.87l-0.006-0.098C96.333,103.805,96.335,103.838,96.34,103.87z"/>
						</g>
						<path style="opacity:0.8;fill:#FFFFFF;" d="M89.904,167.208c0-0.048,0.021-0.087,0.047-0.087l4.963,0h2.481l1.241,0
							c0.419,0.003,0.828,0.006,1.199-0.041c0.756-0.109,1.424-0.542,1.758-1.231c0.176-0.334,0.283-0.712,0.333-1.093
							c0.046-0.347,0.013-0.808,0.023-1.207l0-4.963l0.001-19.851l0-19.851l0-9.925v-2.481l0-0.62
							c0.002-0.209,0.002-0.421-0.022-0.577c-0.049-0.337-0.256-0.62-0.562-0.817c-0.622-0.392-1.464-0.501-2.242-0.506H96.64
							c-0.026,0-0.047-0.039-0.047-0.087c0-0.048,0.021-0.087,0.047-0.087h2.482c0.805,0.007,1.659,0.11,2.34,0.534
							c0.335,0.213,0.583,0.547,0.638,0.935c0.049,0.384,0.014,0.819,0.024,1.226v2.481l0,9.925l0,19.851l-0.001,19.851l0,4.963
							c-0.011,0.408,0.024,0.839-0.025,1.229c-0.052,0.4-0.164,0.795-0.351,1.151c-0.186,0.354-0.442,0.677-0.775,0.899
							c-0.331,0.222-0.714,0.362-1.112,0.424c-0.397,0.05-0.81,0.046-1.225,0.043h-1.241l-2.481,0l-4.963,0
							C89.925,167.295,89.904,167.256,89.904,167.208z"/>
					</g>
				</g>
			</g>
			<g>
				<g>
					<path style="fill:#9FA1A4;" d="M14.9,211.805h-4.199c0,0-2.313-0.006-2.468,1.71c-0.154,1.715,0,17.623,0,17.623
						s0,3.371,2.468,3.217c2.468-0.154,17.263,0,17.263,0s2.633,0.341,2.479-2.776v-5.898c0,0,0.154-3.047-4.781-3.201
						c-4.935-0.154-3.995-7.667-3.995-7.667s0.25-2.976-2.835-3.007H14.9z"/>
					<path style="fill:#575757;" d="M28.186,234.715c-0.154,0-0.254-0.012-0.268-0.014c0,0-0.001,0-0.002,0
						c-0.233,0-14.778-0.148-17.194,0.002c-0.699,0.045-1.293-0.157-1.762-0.598c-1.064-1-1.076-2.887-1.076-2.967
						c-0.006-0.647-0.153-15.941,0.001-17.654c0.145-1.604,1.896-2.027,2.809-2.027c0.002,0,0.005,0,0.008,0h8.129
						c1.031,0.01,1.834,0.325,2.391,0.936c0.902,0.991,0.796,2.389,0.791,2.448c-0.007,0.055-0.494,4.162,1.237,6.185
						c0.601,0.702,1.415,1.073,2.421,1.104c1.967,0.062,3.408,0.574,4.282,1.524c0.88,0.955,0.838,1.999,0.836,2.043l0,5.881
						c0.055,1.098-0.218,1.941-0.812,2.489C29.368,234.632,28.59,234.715,28.186,234.715z M16.295,233.937
						c4.962,0,11.274,0.065,11.672,0.069c0.048,0.003,0.941,0.105,1.543-0.455c0.432-0.402,0.628-1.06,0.584-1.956l0-5.916
						c0.002-0.048,0.023-0.831-0.664-1.566c-0.745-0.798-2.017-1.231-3.779-1.286c-1.211-0.038-2.197-0.492-2.93-1.35
						c-1.931-2.258-1.422-6.529-1.4-6.71l0,0c0,0,0.08-1.149-0.617-1.91c-0.42-0.459-1.051-0.696-1.875-0.704h-8.127
						c-0.082,0-1.997,0.018-2.121,1.392c-0.151,1.679,0,17.429,0.001,17.588c0,0.02,0.014,1.672,0.858,2.464
						c0.327,0.307,0.733,0.443,1.239,0.409C11.516,233.955,13.725,233.937,16.295,233.937z"/>
				</g>
				<path style="fill:#9FA1A4;" d="M25.661,222.479c-4.935-0.154-3.995-7.667-3.995-7.667s0.192-2.352-1.939-2.892
					c-0.051,2.447,0.141,12.85-0.526,15.523c-0.284,1.139-0.889,2.197-1.824,2.924c-0.838,0.652-1.856,0.966-2.901,1.075
					c-2.218,0.232-4.493-0.376-6.03-2.053c-0.083-0.09-0.153-0.19-0.231-0.284c0.01,1.243,0.018,2.033,0.018,2.033
					s0,3.371,2.468,3.217c2.468-0.154,17.263,0,17.263,0s2.633,0.341,2.479-2.776v-5.898
					C30.442,225.68,30.597,222.633,25.661,222.479z"/>
				<path style="fill:#9FA1A4;" d="M25.661,222.479c-1.963-0.061-2.995-1.288-3.528-2.742c0.064,1.488,0.268,3.087,1.173,4.268
					c0.538,0.702,1.344,1.149,2.167,1.433c0.721,0.248,1.332,0.487,1.698,1.207c0.616,1.213,0.75,2.654,0.677,3.99
					c-0.067,1.233-0.271,2.48-0.222,3.717c0.215,0.002,0.337,0.003,0.337,0.003s2.633,0.341,2.479-2.776v-5.898
					C30.442,225.68,30.597,222.633,25.661,222.479z"/>
				<path style="fill:#9DAEB4;" d="M16.13,212.994h-3.702c0,0-2.776-0.308-2.853,1.928v12.13l1.08-11.329
					c0,0-0.062-1.353,1.357-1.803C13.431,213.47,16.13,212.994,16.13,212.994z"/>
			</g>
			<g>
				<polygon style="fill:#535453;" points="64.748,113.439 24.613,162.021 32.787,162.021 				"/>
				<g style="opacity:0.43;">
					<path style="fill:#535453;" d="M72.907,108.883h-7.482l-0.042,0.052c2.113,0.207,8.71,1.127,7.523,4.504
						c-1.409,4.01-30.558,45.96-30.558,45.96s-2.693,4.457-9.598,5.544c1.459-0.034,2.758-0.09,3.74-0.18
						c5.432-0.496,8.346-3.55,8.346-3.55s31.721-44.768,31.721-48.48C76.559,109.022,72.907,108.883,72.907,108.883z"/>
				</g>
			</g>
			<path style="fill:#FDFCEA;" d="M65.871,135.283l-20.129,28.475c0,0-2.344,2.77-7.187,2.83c-4.843,0.06-16.421,0-16.421,0
				s-6.077,5.138-6.657,9.308c-0.58,4.17,0,15.007,0,15.007s1.977-15.618,5.248-17.778c3.271-2.159,20.545,0,20.545,0
				s4.01-0.137,4.781,4.019c0.771,4.156,4.01,14.18,4.473,6.16c0.463-8.02-0.469-16.339,2.696-22.282
				C56.384,155.081,65.871,135.283,65.871,135.283z"/>
		</g>
		<g>
			<path style="fill:#D4D5C8;" d="M49.721,94.777c-8.205,0.617-13.11-4.063-13.11-4.063l-20.995-19.68
				c0.549,2.91,2.555,5.287,2.555,5.287s12.681,18.656,15.02,21.756c2.339,3.1,6.235,2.638,6.235,2.638l107.218,0.691
				l-0.835,129.553l6.507,0.042V94.777C152.315,94.777,57.926,94.16,49.721,94.777z"/>
		</g>
		<g>
			<g>
				<path style="fill:#E9A756;" d="M497.312,208.982c-0.21-1.389-0.044-2.806,0.006-4.201c0.042-1.174,0.045-2.433,0.534-3.528
					c0.266-0.595,0.707-1.06,1.38-1.126c0.728-0.071,1.478,0.211,2.14,0.48c1.164,0.473,2.274,1.06,3.401,1.611l-0.085,12.676
					c-1.017-0.264-2.02-0.573-2.99-0.989C499.524,212.973,497.683,211.438,497.312,208.982z"/>
				<path style="fill:#BE5533;" d="M504.601,215.228c-1.202-0.313-2.168-0.632-3.039-1.006c-2.701-1.159-4.246-2.905-4.591-5.189
					l0,0c-0.166-1.097-0.105-2.208-0.046-3.282c0.018-0.328,0.036-0.656,0.048-0.982l0.009-0.275
					c0.037-1.136,0.076-2.31,0.555-3.382c0.357-0.797,0.931-1.256,1.662-1.328c0.795-0.075,1.573,0.208,2.303,0.505
					c0.897,0.365,1.771,0.8,2.616,1.221l0.807,0.399c0.119,0.058,0.194,0.18,0.193,0.311l-0.085,12.676
					c-0.001,0.106-0.05,0.207-0.135,0.271c-0.061,0.047-0.135,0.071-0.21,0.071C504.659,215.239,504.63,215.236,504.601,215.228z
					 M503.81,202.126c-0.834-0.415-1.696-0.845-2.569-1.2c-0.651-0.265-1.34-0.524-1.976-0.456c-0.476,0.046-0.846,0.357-1.1,0.923
					c-0.423,0.948-0.46,2.055-0.495,3.124l-0.009,0.276c-0.012,0.331-0.03,0.663-0.048,0.997c-0.057,1.04-0.116,2.114,0.039,3.14
					l0,0c0.308,2.033,1.715,3.6,4.182,4.659c0.733,0.315,1.54,0.591,2.512,0.858l0.081-12.015L503.81,202.126z"/>
			</g>
			<path style="fill:#EC994B;" d="M502.327,204.1c0.052-0.08-0.012,0.003,0.052-0.066c0.022-0.024,0.044-0.048,0.068-0.07
				c0.007-0.007,0.046-0.039,0.06-0.052c0.016-0.01,0.057-0.037,0.066-0.042c0.013-0.007,0.069-0.032,0.076-0.037
				c0.027-0.009,0.053-0.018,0.08-0.025c0.015-0.004,0.058-0.01,0.071-0.012c0.027-0.002,0.053-0.004,0.08-0.004
				c0.116,0.001,0.085-0.003,0.211,0.03c0.087,0.022,0.181,0.057,0.236,0.083c0.044,0.02,0.087,0.028,0.129,0.031
				c0.105,0.245,0.177,0.506,0.228,0.783c0.07,0.378,0.089,0.881,0.037,1.241c-0.028,0.2-0.076,0.402-0.151,0.589
				c0.019-0.047-0.034,0.073-0.042,0.087c-0.017,0.034-0.036,0.067-0.055,0.099c-0.019,0.031-0.039,0.061-0.061,0.09
				c-0.007,0.007-0.042,0.048-0.053,0.059c-0.017,0.016-0.097,0.086-0.074,0.069c0.026-0.02-0.059,0.036-0.073,0.044
				c-0.014,0.009-0.029,0.015-0.044,0.022c-0.002,0.001,0,0-0.004,0.001c-0.038,0.012-0.075,0.021-0.114,0.031
				c-0.008,0.002-0.031,0.005-0.041,0.007c-0.012,0.001-0.024,0.003-0.036,0.003c-0.039,0.001-0.078,0.001-0.117,0
				c-0.012,0-0.013,0.001-0.015,0.001c-0.005-0.002-0.006-0.002-0.018-0.005c-0.036-0.008-0.07-0.018-0.105-0.028
				c-0.017-0.005-0.023-0.006-0.026-0.006c-0.004-0.003-0.011-0.007-0.028-0.017c-0.032-0.017-0.062-0.035-0.093-0.055
				c-0.066-0.041-0.008-0.001-0.039-0.029c-0.028-0.025-0.055-0.05-0.081-0.077c-0.017-0.018-0.08-0.092-0.066-0.074
				c0.019,0.025-0.031-0.045-0.042-0.061c-0.044-0.069-0.085-0.14-0.12-0.214c-0.046-0.094-0.039-0.08-0.08-0.203
				c-0.027-0.08-0.049-0.161-0.068-0.243c-0.05-0.214-0.061-0.297-0.071-0.515c-0.019-0.398,0.007-0.678,0.131-1.05
				C502.177,204.361,502.224,204.257,502.327,204.1z"/>
			<path style="fill:#E9A756;" d="M497.318,204.781c0.042-1.174,0.045-2.433,0.534-3.528c0.266-0.595,0.707-1.06,1.38-1.126
				c0.728-0.071,1.478,0.211,2.14,0.48c1.021,0.415,2.001,0.917,2.988,1.406c-0.839-0.252-1.731-0.325-2.487,0.143
				c-0.917,0.568-1.276,1.697-1.442,2.703c-0.231,1.397-0.134,2.777,0.484,4.067c0.559,1.168,1.526,2.133,2.744,2.596
				c0.345,0.131,0.697,0.211,1.051,0.248l-0.021,3.124c-1.017-0.264-2.02-0.573-2.99-0.989c-2.174-0.933-4.015-2.468-4.387-4.924
				C497.102,207.593,497.268,206.176,497.318,204.781z"/>
			<g>
				<g>
					<g>
						<path style="fill:#E9A756;" d="M498.569,171.049c0.796-1.305,2.773-2.289,4.65-2.968c2.623,5.567,1.767,10.631,1.767,10.631
							l-0.151,21.173c-1.993-0.482-4.775-1.272-5.983-2.16C496.868,196.265,496.868,173.836,498.569,171.049z"/>
						<path style="fill:#BE5533;" d="M504.755,200.176c-2.101-0.509-4.865-1.306-6.101-2.215c-2.273-1.673-1.932-24.49-0.363-27.06
							c0.706-1.158,2.326-2.2,4.813-3.1c0.158-0.056,0.339,0.013,0.409,0.159c2.631,5.584,1.826,10.589,1.794,10.755l-0.151,21.173
							c-0.001,0.092-0.047,0.18-0.125,0.236c-0.057,0.04-0.125,0.062-0.195,0.062C504.808,200.186,504.781,200.183,504.755,200.176z
							 M498.847,171.198L498.847,171.198c-1.75,2.866-1.579,24.98,0.203,26.29c1.075,0.791,3.488,1.514,5.467,2.009l0.153-20.831
							c0.008-0.049,0.782-4.887-1.622-10.199C500.893,169.279,499.444,170.221,498.847,171.198z"/>
					</g>
				</g>
				<g>
					<path style="fill:#EC994B;" d="M504.877,193.96c-0.025,0.022-0.046,0.049-0.071,0.071c-0.799-1.535-0.823-3.406-0.86-5.07
						c-0.041-1.815-0.153-3.617-0.255-5.43c-0.117-2.084-0.232-4.184-0.702-6.231c-0.6-2.612-1.819-5.097-3.445-7.309
						c0.975-0.793,2.346-1.43,3.676-1.911c2.623,5.567,1.767,10.631,1.767,10.631L504.877,193.96z"/>
				</g>
				<g>
					<path style="fill:#E9A756;" d="M498.569,171.049c0.667-1.093,2.165-1.959,3.738-2.611c-0.53,0.374-1.002,0.819-1.389,1.349
						c-0.774,1.059-1.143,2.327-1.321,3.585c-0.233,1.646-0.283,3.327-0.342,4.984c-0.065,1.816-0.08,3.633-0.083,5.45
						c-0.005,2.348-0.113,4.726,0.126,7.067c0.19,1.862,0.643,3.776,1.911,5.27c0.945,1.114,2.234,1.795,3.638,2.198l-0.011,1.545
						c-1.993-0.482-4.775-1.272-5.983-2.16C496.868,196.265,496.868,173.836,498.569,171.049z"/>
				</g>
			</g>
		</g>
		<g>
			<g>
				<path style="fill:#E9A756;" d="M28.967,210.417h-8.709c-1.349,0-2.453-1.104-2.453-2.453l0,0c0-1.349,1.104-2.453,2.453-2.453
					h8.709c1.349,0,2.453,1.104,2.453,2.453l0,0C31.42,209.313,30.316,210.417,28.967,210.417z"/>
				<path style="fill:#E59029;" d="M28.967,210.765h-8.709c-1.545,0-2.802-1.257-2.802-2.802c0-1.545,1.257-2.801,2.802-2.801h8.709
					c1.545,0,2.802,1.257,2.802,2.801C31.769,209.508,30.512,210.765,28.967,210.765z M20.258,205.859
					c-1.161,0-2.105,0.944-2.105,2.104c0,1.161,0.944,2.105,2.105,2.105h8.709c1.161,0,2.105-0.944,2.105-2.105
					c0-1.16-0.944-2.104-2.105-2.104H20.258z"/>
			</g>
			<path style="fill:#EDC826;" d="M23.533,208.367h-3.147c-0.594,0-1.08-0.486-1.08-1.08l0,0c0-0.594,0.486-1.079,1.08-1.079h3.147
				c0.594,0,1.08,0.486,1.08,1.079l0,0C24.613,207.881,24.127,208.367,23.533,208.367z"/>
		</g>
		<g>
			<g>
				<path style="fill:#E9A756;" d="M495.583,160.167h-8.709c-1.349,0-2.453-1.104-2.453-2.453l0,0c0-1.349,1.104-2.453,2.453-2.453
					h8.709c1.349,0,2.453,1.104,2.453,2.453l0,0C498.036,159.063,496.932,160.167,495.583,160.167z"/>
				<path style="fill:#E59029;" d="M495.583,160.516h-8.709c-1.545,0-2.802-1.257-2.802-2.802c0-1.545,1.257-2.802,2.802-2.802
					h8.709c1.545,0,2.802,1.257,2.802,2.802C498.385,159.259,497.128,160.516,495.583,160.516z M486.874,155.61
					c-1.161,0-2.105,0.944-2.105,2.104c0,1.161,0.944,2.105,2.105,2.105h8.709c1.161,0,2.105-0.944,2.105-2.105
					c0-1.16-0.944-2.104-2.105-2.104H486.874z"/>
			</g>
			<path style="fill:#EDC826;" d="M490.149,158.118h-3.147c-0.594,0-1.08-0.486-1.08-1.08l0,0c0-0.594,0.486-1.08,1.08-1.08h3.147
				c0.594,0,1.08,0.486,1.08,1.08l0,0C491.229,157.632,490.743,158.118,490.149,158.118z"/>
		</g>
		<g>
			<g>
				<path style="fill:#9FA1A4;" d="M133.15,175.443h-14.115c-1.538,0-2.796-1.258-2.796-2.796l0,0c0-1.538,1.258-2.796,2.796-2.796
					h14.115c1.538,0,2.796,1.258,2.796,2.796l0,0C135.945,174.184,134.687,175.443,133.15,175.443z"/>
				<path style="fill:#575757;" d="M133.768,175.791h-15.352c-1.393,0-2.526-1.133-2.526-2.525v-1.237
					c0-1.392,1.133-2.525,2.526-2.525h15.352c1.393,0,2.526,1.133,2.526,2.525v1.237
					C136.294,174.658,135.161,175.791,133.768,175.791z M118.416,170.2c-1.008,0-1.829,0.82-1.829,1.828v1.237
					c0,1.008,0.82,1.828,1.829,1.828h15.352c1.008,0,1.829-0.82,1.829-1.828v-1.237c0-1.008-0.82-1.828-1.829-1.828H118.416z"/>
			</g>
			<g>
				<path style="fill:#9FA1A4;" d="M133.768,173.613h-15.352c-1.096,0-2-0.823-2.147-1.881c-0.014,0.098-0.03,0.195-0.03,0.296
					v1.237c0,1.197,0.98,2.177,2.177,2.177h15.352c1.197,0,2.177-0.98,2.177-2.177v-1.237c0-0.101-0.017-0.199-0.03-0.296
					C135.768,172.789,134.864,173.613,133.768,173.613z"/>
				<g>
					<path style="fill:#9FA1A4;" d="M133.768,169.851h-15.352c-1.096,0-2,0.824-2.147,1.881c0.147,1.057,1.051,1.881,2.147,1.881
						h15.352c1.096,0,2-0.823,2.147-1.881C135.768,170.675,134.864,169.851,133.768,169.851z"/>
					<path style="fill:#575757;" d="M133.768,173.961h-15.352c-1.248,0-2.319-0.938-2.492-2.181l-0.007-0.048l0.007-0.048
						c0.173-1.243,1.244-2.181,2.492-2.181h15.352c1.248,0,2.32,0.938,2.492,2.181l0.007,0.048l-0.007,0.048
						C136.088,173.023,135.016,173.961,133.768,173.961z M116.622,171.732c0.145,0.877,0.908,1.532,1.794,1.532h15.352
						c0.886,0,1.649-0.655,1.794-1.532c-0.145-0.877-0.908-1.532-1.794-1.532h-15.352C117.53,170.2,116.767,170.855,116.622,171.732
						z"/>
				</g>
				<g>
					<path style="fill:#9FA1A4;" d="M118.416,171.085h15.352c0.869,0,1.611,0.522,1.957,1.264c0.09-0.193,0.16-0.398,0.19-0.617
						c-0.147-1.057-1.051-1.881-2.147-1.881h-15.352c-1.096,0-2,0.824-2.147,1.881c0.03,0.219,0.1,0.423,0.19,0.617
						C116.805,171.607,117.547,171.085,118.416,171.085z"/>
				</g>
			</g>
		</g>
		<g>
			<g>
				<g>
					<rect x="155.424" y="54.242" style="fill:#9FA1A4;" width="61.688" height="176.896"/>
					<path style="fill:#575757;" d="M217.461,231.487h-62.385V53.893h62.385V231.487z M155.773,230.79h60.99V54.59h-60.99V230.79z"
						/>
				</g>
				<rect x="157.25" y="57.643" style="fill:#6F7184;" width="57.99" height="173.495"/>
				<g>
					<rect x="158.805" y="58.357" style="fill:#FDFCEA;" width="54.926" height="172.781"/>
					<path style="fill:#93958D;" d="M214.08,231.487h-55.624V58.009h55.624V231.487z M159.154,230.79h54.229V58.706h-54.229V230.79z
						"/>
				</g>
				<polygon style="fill:#D4D5C8;" points="161.231,61.241 158.805,231.138 158.805,58.357 213.731,58.357 				"/>
				<g>
					<rect x="158.805" y="163.758" style="fill:#0474A9;" width="54.926" height="8.094"/>
					<path style="fill:#005479;" d="M214.08,172.2h-55.624v-8.791h55.624V172.2z M159.154,171.503h54.229v-7.396h-54.229V171.503z"
						/>
				</g>
				<g>
					<rect x="158.805" y="175.443" style="fill:#0474A9;" width="54.926" height="8.094"/>
					<path style="fill:#005479;" d="M214.08,183.885h-55.624v-8.791h55.624V183.885z M159.154,183.188h54.229v-7.397h-54.229
						V183.188z"/>
				</g>
				<polygon style="fill:#D4D5C8;" points="213.731,231.138 158.805,231.138 210.056,227.454 215.488,63.273 				"/>
			</g>
			<g>
				<path style="fill:#292B2A;" d="M200.13,137.6v-21.425v-8.757V85.993c0,0,0.452-7.056-5.34-7.369h-4.139h-7.421h-4.139
					c-5.792,0.312-5.34,7.369-5.34,7.369v21.425v8.757V137.6c0,0-0.452,7.056,5.34,7.368h4.139h7.421h4.139
					C200.582,144.656,200.13,137.6,200.13,137.6z"/>
				<path style="fill:#1A1B1B;" d="M190.651,145.317H179.09c-1.629-0.087-2.933-0.68-3.894-1.761
					c-2.007-2.258-1.803-5.827-1.794-5.978l-0.001-51.584c-0.009-0.129-0.213-3.698,1.794-5.956
					c0.961-1.082,2.265-1.674,3.875-1.761l15.719,0c1.629,0.087,2.933,0.68,3.894,1.761c2.007,2.258,1.803,5.827,1.793,5.978
					l0.001,51.574c0.016,0.269,0.176,3.749-1.794,5.966c-0.961,1.082-2.265,1.674-3.875,1.761L190.651,145.317z M179.09,78.973
					c-1.398,0.076-2.538,0.589-3.371,1.525c-1.814,2.038-1.623,5.439-1.621,5.473l0.001,51.629c-0.003,0.056-0.193,3.457,1.62,5.495
					c0.833,0.936,1.973,1.449,3.39,1.525l15.681,0c1.397-0.076,2.538-0.589,3.371-1.525c1.814-2.038,1.623-5.439,1.621-5.473
					l-0.001-0.022V85.993c0.003-0.056,0.193-3.457-1.62-5.495c-0.833-0.936-1.973-1.449-3.39-1.525L179.09,78.973z"/>
			</g>
			<g>
				<path style="fill:#535453;" d="M198.187,124.621v-2.913V86.971c0,0,0.38-6.062-4.488-6.33h-13.195
					c-4.868,0.268-4.488,6.33-4.488,6.33v34.737v7.154v7.43c0,0-0.38,6.062,4.488,6.33h13.195c4.868-0.268,4.488-6.33,4.488-6.33
					V124.621z"/>
				<path style="fill:#1A1B1B;" d="M180.503,142.97c-1.37-0.075-2.469-0.577-3.284-1.494c-1.734-1.952-1.56-5.074-1.552-5.206
					l-0.001-49.299c-0.008-0.11-0.182-3.232,1.553-5.184c0.815-0.917,1.913-1.42,3.265-1.494l13.215-0.001
					c1.37,0.075,2.469,0.578,3.284,1.495c1.735,1.951,1.56,5.074,1.552,5.206l0.001,49.299c0.007,0.11,0.182,3.233-1.553,5.184
					c-0.815,0.917-1.913,1.419-3.265,1.493L180.503,142.97z M193.68,80.989l-13.176,0.001c-1.139,0.063-2.074,0.487-2.761,1.258
					c-1.542,1.732-1.381,4.672-1.38,4.702l0.001,49.342c-0.002,0.051-0.163,2.991,1.379,4.723c0.687,0.771,1.622,1.195,2.78,1.259
					l13.176-0.001c1.138-0.063,2.074-0.486,2.76-1.258c1.542-1.732,1.381-4.672,1.38-4.702l-0.001-49.342
					c0.003-0.051,0.163-2.991-1.379-4.723C195.773,81.477,194.837,81.053,193.68,80.989z"/>
			</g>
			<path style="opacity:0.43;fill:#535453;" d="M198.187,124.621v-2.913V86.971c0,0,0.38-6.062-4.488-6.33h-13.195
				c-4.868,0.268-4.488,6.33-4.488,6.33v34.737v7.154v7.43c0,0-0.38,6.062,4.488,6.33h13.195c4.868-0.268,4.488-6.33,4.488-6.33
				V124.621z M190.872,126.743h-9.208c-3.397-0.187-3.132-4.417-3.132-4.417v-5.185v-4.992V87.911c0,0-0.265-4.23,3.132-4.417h9.208
				c3.397,0.187,3.132,4.417,3.132,4.417v24.239v2.033v8.144C194.004,122.326,194.269,126.556,190.872,126.743z"/>
			<g>
				<g>
					<path style="fill:#9FA1A4;" d="M161.298,154.961v-10.962c0-1.194,0.977-2.171,2.171-2.171l0,0c1.194,0,2.171,0.977,2.171,2.171
						v10.962c0,1.194-0.977,2.171-2.171,2.171l0,0C162.275,157.132,161.298,156.155,161.298,154.961z"/>
					<path style="fill:#575757;" d="M163.469,157.48c-1.389,0-2.52-1.13-2.52-2.52v-10.963c0-1.389,1.13-2.52,2.52-2.52
						c1.389,0,2.52,1.13,2.52,2.52v10.963C165.989,156.35,164.859,157.48,163.469,157.48z M163.469,142.176
						c-1.005,0-1.822,0.817-1.822,1.822v10.963c0,1.005,0.818,1.823,1.822,1.823c1.005,0,1.822-0.817,1.822-1.823v-10.963
						C165.292,142.993,164.475,142.176,163.469,142.176z"/>
				</g>
				<g>
					<path style="fill:#9FA1A4;" d="M162.719,155.441v-11.923c0-0.851,0.64-1.553,1.461-1.667c-0.076-0.01-0.151-0.023-0.23-0.023
						h-0.961c-0.93,0-1.691,0.761-1.691,1.691v11.923c0,0.93,0.761,1.691,1.691,1.691h0.961c0.079,0,0.154-0.013,0.23-0.023
						C163.359,156.994,162.719,156.292,162.719,155.441z"/>
					<g>
						<path style="fill:#9FA1A4;" d="M165.641,155.441v-11.923c0-0.851-0.64-1.553-1.461-1.667
							c-0.821,0.114-1.461,0.816-1.461,1.667v11.923c0,0.851,0.64,1.553,1.461,1.667
							C165.001,156.994,165.641,156.292,165.641,155.441z"/>
						<path style="fill:#575757;" d="M164.18,157.46l-0.048-0.007c-1.004-0.139-1.761-1.005-1.761-2.012v-11.923
							c0-1.008,0.757-1.873,1.761-2.013l0.048-0.007l0.048,0.007c1.004,0.14,1.761,1.005,1.761,2.013v11.923
							c0,1.008-0.757,1.873-1.761,2.012L164.18,157.46z M164.18,142.203c-0.637,0.112-1.112,0.669-1.112,1.315v11.923
							c0,0.645,0.475,1.202,1.112,1.314c0.637-0.112,1.112-0.669,1.112-1.314v-11.923
							C165.292,142.872,164.817,142.315,164.18,142.203z"/>
					</g>
					<g>
						<path style="fill:#9FA1A4;" d="M164.683,143.518v11.923c0,0.675-0.405,1.251-0.982,1.52c0.15,0.07,0.309,0.124,0.479,0.148
							c0.821-0.114,1.461-0.816,1.461-1.667v-11.923c0-0.851-0.64-1.553-1.461-1.667c-0.17,0.024-0.329,0.078-0.479,0.148
							C164.277,142.267,164.683,142.843,164.683,143.518z"/>
					</g>
				</g>
			</g>
		</g>
		<g>
			<g>
				<path style="fill:#E9A756;" d="M472.749,38.639h-8.709c-1.349,0-2.453-1.104-2.453-2.453l0,0c0-1.349,1.104-2.453,2.453-2.453
					h8.709c1.349,0,2.453,1.104,2.453,2.453l0,0C475.202,37.535,474.098,38.639,472.749,38.639z"/>
				<path style="fill:#E59029;" d="M472.749,38.988h-8.709c-1.545,0-2.802-1.257-2.802-2.802c0-1.545,1.257-2.802,2.802-2.802h8.709
					c1.545,0,2.802,1.257,2.802,2.802C475.551,37.731,474.294,38.988,472.749,38.988z M464.04,34.082
					c-1.16,0-2.104,0.944-2.104,2.104c0,1.161,0.944,2.105,2.104,2.105h8.709c1.161,0,2.105-0.944,2.105-2.105
					c0-1.16-0.944-2.104-2.105-2.104H464.04z"/>
			</g>
			<path style="fill:#EDC826;" d="M467.315,36.59h-3.147c-0.594,0-1.08-0.486-1.08-1.08l0,0c0-0.594,0.486-1.08,1.08-1.08h3.147
				c0.594,0,1.08,0.486,1.08,1.08l0,0C468.394,36.104,467.908,36.59,467.315,36.59z"/>
		</g>
	</g>
</g>
</svg>
